<?xml version="1.0" encoding="UTF-8" standalone="no"?>
<!-- Created with Inkscape (http://www.inkscape.org/) -->

<svg
   xmlns:dc="http://purl.org/dc/elements/1.1/"
   xmlns:cc="http://creativecommons.org/ns#"
   xmlns:rdf="http://www.w3.org/1999/02/22-rdf-syntax-ns#"
   xmlns:svg="http://www.w3.org/2000/svg"
   xmlns="http://www.w3.org/2000/svg"
   xmlns:sodipodi="http://sodipodi.sourceforge.net/DTD/sodipodi-0.dtd"
   xmlns:inkscape="http://www.inkscape.org/namespaces/inkscape"
   width="210mm"
   height="297mm"
   viewBox="0 0 744.09448819 1052.3622047"
   id="svg5156"
   version="1.1"
   inkscape:version="0.91 r13725"
   sodipodi:docname="db.svg">
  <sodipodi:namedview
     id="base"
     pagecolor="#ffffff"
     bordercolor="#666666"
     borderopacity="1.0"
     inkscape:pageopacity="0.0"
     inkscape:pageshadow="2"
     inkscape:zoom="0.7"
     inkscape:cx="279.53388"
     inkscape:cy="707.43712"
     inkscape:document-units="px"
     inkscape:current-layer="layer1"
     showgrid="false"
     inkscape:window-width="1920"
     inkscape:window-height="1023"
     inkscape:window-x="0"
     inkscape:window-y="24"
     inkscape:window-maximized="1" />
  <defs
     id="defs5158">
    <marker
       inkscape:isstock="true"
       style="overflow:visible;"
       id="Arrow1Lend"
       refX="0.0"
       refY="0.0"
       orient="auto"
       inkscape:stockid="Arrow1Lend">
      <path
         transform="scale(0.8) rotate(180) translate(12.5,0)"
         style="fill-rule:evenodd;stroke:#000000;stroke-width:1pt;stroke-opacity:1;fill:#000000;fill-opacity:1"
         d="M 0.0,0.0 L 5.0,-5.0 L -12.5,0.0 L 5.0,5.0 L 0.0,0.0 z "
         id="path4189" />
    </marker>
    <marker
       inkscape:isstock="true"
       style="overflow:visible"
       id="Arrow1Lend-3"
       refX="0"
       refY="0"
       orient="auto"
       inkscape:stockid="Arrow1Lend">
      <path
         inkscape:connector-curvature="0"
         transform="matrix(-0.8,0,0,-0.8,-10,0)"
         style="fill:#000000;fill-opacity:1;fill-rule:evenodd;stroke:#000000;stroke-width:1pt;stroke-opacity:1"
         d="M 0,0 5,-5 -12.5,0 5,5 0,0 Z"
         id="path4189-6" />
    </marker>
  </defs>
  <metadata
     id="metadata5161">
    <rdf:RDF>
      <cc:Work
         rdf:about="">
        <dc:format>image/svg+xml</dc:format>
        <dc:type
           rdf:resource="http://purl.org/dc/dcmitype/StillImage" />
        <dc:title></dc:title>
      </cc:Work>
    </rdf:RDF>
  </metadata>
  <g
     id="layer1"
     inkscape:groupmode="layer"
     inkscape:label="Layer 1">
    <circle
       style="opacity:1;fill:none;fill-opacity:1;stroke:#090b0c;stroke-width:2;stroke-miterlimit:4;stroke-dasharray:none;stroke-dashoffset:0;stroke-opacity:1"
       id="path6359"
       cx="459.28571"
       cy="255.21933"
       r="114.28571" />
    <circle
       id="path6361"
       style="fill:#ff0000;stroke:#090b0c;stroke-opacity:1"
       cx="459.28571"
       cy="255.93361"
       r="3" />
    <circle
       id="path6363"
       style="fill:#00ff00;stroke:#090b0c;stroke-opacity:1"
       cx="373.57144"
       cy="226.6479"
       r="3" />
    <circle
       id="path6365"
       style="fill:#00ff00;stroke:#090b0c;stroke-opacity:1"
       cx="436.42856"
       cy="214.50504"
       r="3" />
    <circle
       id="path6367"
       style="fill:#00ff00;stroke:#090b0c;stroke-opacity:1"
       cx="483.57144"
       cy="210.21931"
       r="3" />
    <circle
       id="path6369"
       style="fill:#00ff00;stroke:#090b0c;stroke-opacity:1"
       cx="520"
       cy="237.36218"
       r="3" />
    <circle
       id="path6371"
       style="fill:#00ff00;stroke:#090b0c;stroke-opacity:1"
       cx="429.28571"
       cy="238.07648"
       r="3" />
    <circle
       id="path6373"
       style="fill:#00ff00;stroke:#090b0c;stroke-opacity:1"
       cx="386.42856"
       cy="257.36218"
       r="3" />
    <circle
       id="path6375"
       style="fill:#00ff00;stroke:#090b0c;stroke-opacity:1"
       cx="363.57144"
       cy="272.36218"
       r="3" />
    <circle
       id="path6377"
       style="fill:#00ff00;stroke:#090b0c;stroke-opacity:1"
       cx="488.57144"
       cy="269.50504"
       r="3" />
    <circle
       id="path6379"
       style="fill:#00ff00;stroke:#090b0c;stroke-opacity:1"
       cx="546.42859"
       cy="267.36218"
       r="3" />
    <circle
       id="path6381"
       style="fill:#00ff00;stroke:#090b0c;stroke-opacity:1"
       cx="541.42859"
       cy="183.79076"
       r="3" />
    <circle
       id="path6383"
       style="fill:#00ff00;stroke:#090b0c;stroke-opacity:1"
       cx="452.85715"
       cy="175.21931"
       r="3" />
    <circle
       id="path6385"
       style="fill:#00ff00;stroke:#090b0c;stroke-opacity:1"
       cx="403.57144"
       cy="168.07648"
       r="3" />
    <circle
       id="path6387"
       style="fill:#00ff00;stroke:#090b0c;stroke-opacity:1"
       cx="399.28571"
       cy="199.50504"
       r="3" />
    <circle
       id="path6389"
       style="fill:#000000;stroke:none"
       cx="372.85715"
       cy="301.64789"
       r="3" />
    <circle
       id="path6393"
       style="fill:#000000;stroke:none"
       cx="405"
       cy="301.64789"
       r="3" />
    <circle
       id="path6395"
       style="fill:#000000;stroke:none"
       cx="435"
       cy="299.50504"
       r="3" />
    <circle
       id="path6397"
       style="fill:#000000;stroke:none"
       cx="471.42856"
       cy="299.50504"
       r="3" />
    <circle
       id="path6399"
       style="fill:#000000;stroke:none"
       cx="512.14282"
       cy="298.79074"
       r="3" />
    <circle
       id="path6401"
       style="fill:#000000;stroke:none"
       cx="543.57147"
       cy="296.64789"
       r="3" />
    <circle
       id="path6407"
       style="fill:#000000;stroke:none"
       cx="375"
       cy="325.93362"
       r="3" />
    <circle
       id="path6409"
       style="fill:#000000;stroke:none"
       cx="404.28571"
       cy="323.79074"
       r="3" />
    <circle
       id="path6411"
       style="fill:#000000;stroke:none"
       cx="439.28571"
       cy="325.21933"
       r="3" />
    <circle
       id="path6413"
       style="fill:#000000;stroke:none"
       cx="475.71429"
       cy="323.07648"
       r="3" />
    <circle
       id="path6415"
       style="fill:#000000;stroke:none"
       cx="514.28571"
       cy="321.64789"
       r="3" />
    <circle
       id="path6417"
       style="fill:#000000;stroke:none"
       cx="405"
       cy="348.07648"
       r="3" />
    <circle
       id="path6419"
       style="fill:#000000;stroke:none"
       cx="440"
       cy="348.79074"
       r="3" />
    <circle
       id="path6421"
       style="fill:#000000;stroke:none"
       cx="477.85715"
       cy="346.64789"
       r="3" />
    <circle
       id="path6423"
       style="fill:#000000;stroke:none"
       cx="514.28571"
       cy="344.50504"
       r="3" />
    <circle
       id="path6425"
       style="fill:#000000;stroke:none"
       cx="544.49493"
       cy="320.89771"
       r="3" />
    <circle
       r="3"
       cy="303.71896"
       cx="337.50037"
       style="fill:#000000;stroke:none"
       id="circle6441" />
    <circle
       r="3"
       cy="324.43326"
       cx="338.92889"
       style="fill:#000000;stroke:none"
       id="circle6445" />
    <circle
       id="circle6447"
       style="fill:#000000;stroke:none"
       cx="570.84705"
       cy="295.58698"
       r="3" />
    <circle
       id="circle6449"
       style="fill:#000000;stroke:none"
       cx="602.98987"
       cy="295.58698"
       r="3" />
    <circle
       r="3"
       cy="347.36218"
       cx="374.28571"
       style="fill:#000000;stroke:none"
       id="circle6471" />
    <circle
       r="3"
       cy="371.64792"
       cx="376.42856"
       style="fill:#000000;stroke:none"
       id="circle6473" />
    <circle
       id="circle6485"
       style="fill:#000000;stroke:none"
       cx="338.92892"
       cy="349.43326"
       r="3" />
    <circle
       id="circle6489"
       style="fill:#000000;stroke:none"
       cx="338.33716"
       cy="372.67294"
       r="3" />
    <circle
       r="3"
       cy="320.33569"
       cx="571.35211"
       style="fill:#000000;stroke:none"
       id="circle6499" />
    <circle
       r="3"
       cy="320.33569"
       cx="603.49493"
       style="fill:#000000;stroke:none"
       id="circle6501" />
    <circle
       r="3"
       cy="342.616"
       cx="543.98981"
       style="fill:#000000;stroke:none"
       id="circle6507" />
    <circle
       id="circle6513"
       style="fill:#000000;stroke:none"
       cx="570.84698"
       cy="342.05399"
       r="3" />
    <circle
       id="circle6515"
       style="fill:#000000;stroke:none"
       cx="602.98981"
       cy="342.05399"
       r="3" />
    <circle
       r="3"
       cy="372.32013"
       cx="407.02029"
       style="fill:#000000;stroke:none"
       id="circle6521" />
    <circle
       r="3"
       cy="373.03439"
       cx="442.02029"
       style="fill:#000000;stroke:none"
       id="circle6523" />
    <circle
       r="3"
       cy="370.89154"
       cx="479.87744"
       style="fill:#000000;stroke:none"
       id="circle6525" />
    <circle
       r="3"
       cy="368.74869"
       cx="516.30603"
       style="fill:#000000;stroke:none"
       id="circle6527" />
    <circle
       id="circle6529"
       style="fill:#000000;stroke:none"
       cx="546.01013"
       cy="366.85965"
       r="3" />
    <circle
       r="3"
       cy="366.29764"
       cx="572.86731"
       style="fill:#000000;stroke:none"
       id="circle6535" />
    <circle
       r="3"
       cy="366.29764"
       cx="605.01013"
       style="fill:#000000;stroke:none"
       id="circle6537" />
    <circle
       id="circle6577"
       style="fill:#00ff00;stroke:#090b0c;stroke-opacity:1"
       cx="593.14368"
       cy="115.83208"
       r="3" />
    <circle
       id="circle6583"
       style="fill:#00ff00;stroke:#090b0c;stroke-opacity:1"
       cx="586.00079"
       cy="139.40352"
       r="3" />
    <circle
       r="3"
       cy="254.4035"
       cx="597.42938"
       style="fill:#00ff00;stroke:#090b0c;stroke-opacity:1"
       id="circle6591" />
    <circle
       r="3"
       cy="212.97493"
       cx="574.57227"
       style="fill:#00ff00;stroke:#090b0c;stroke-opacity:1"
       id="circle6593" />
    <circle
       r="3"
       cy="236.54637"
       cx="567.42938"
       style="fill:#00ff00;stroke:#090b0c;stroke-opacity:1"
       id="circle6599" />
    <circle
       r="3"
       cy="173.68921"
       cx="591.00085"
       style="fill:#00ff00;stroke:#090b0c;stroke-opacity:1"
       id="circle6605" />
    <circle
       r="3"
       cy="110.79363"
       cx="426.0921"
       style="fill:#00ff00;stroke:#090b0c;stroke-opacity:1"
       id="circle6607" />
    <circle
       r="3"
       cy="69.365059"
       cx="403.23499"
       style="fill:#00ff00;stroke:#090b0c;stroke-opacity:1"
       id="circle6609" />
    <circle
       r="3"
       cy="65.079338"
       cx="450.37787"
       style="fill:#00ff00;stroke:#090b0c;stroke-opacity:1"
       id="circle6611" />
    <circle
       r="3"
       cy="92.222206"
       cx="486.8064"
       style="fill:#00ff00;stroke:#090b0c;stroke-opacity:1"
       id="circle6613" />
    <circle
       r="3"
       cy="92.936501"
       cx="396.0921"
       style="fill:#00ff00;stroke:#090b0c;stroke-opacity:1"
       id="circle6615" />
    <circle
       r="3"
       cy="122.22221"
       cx="513.23499"
       style="fill:#00ff00;stroke:#090b0c;stroke-opacity:1"
       id="circle6617" />
    <circle
       r="3"
       cy="38.65078"
       cx="508.23499"
       style="fill:#00ff00;stroke:#090b0c;stroke-opacity:1"
       id="circle6619" />
    <circle
       r="3"
       cy="30.07934"
       cx="419.66357"
       style="fill:#00ff00;stroke:#090b0c;stroke-opacity:1"
       id="circle6621" />
    <circle
       id="circle6623"
       style="fill:#00ff00;stroke:#090b0c;stroke-opacity:1"
       cx="489.66357"
       cy="135.79364"
       r="3" />
    <circle
       id="circle6625"
       style="fill:#00ff00;stroke:#090b0c;stroke-opacity:1"
       cx="401.09216"
       cy="127.22219"
       r="3" />
    <circle
       id="circle6627"
       style="fill:#00ff00;stroke:#090b0c;stroke-opacity:1"
       cx="331.80643"
       cy="105.07935"
       r="3" />
    <circle
       id="circle6629"
       style="fill:#00ff00;stroke:#090b0c;stroke-opacity:1"
       cx="323.23502"
       cy="170.79362"
       r="3" />
    <circle
       id="circle6631"
       style="fill:#00ff00;stroke:#090b0c;stroke-opacity:1"
       cx="381.09213"
       cy="144.36507"
       r="3" />
    <circle
       id="circle6633"
       style="fill:#00ff00;stroke:#090b0c;stroke-opacity:1"
       cx="312.52072"
       cy="150.07935"
       r="3" />
    <circle
       r="3"
       cy="242.22221"
       cx="311.8064"
       style="fill:#00ff00;stroke:#090b0c;stroke-opacity:1"
       id="circle6635" />
    <circle
       r="3"
       cy="256.5079"
       cx="337.52072"
       style="fill:#00ff00;stroke:#090b0c;stroke-opacity:1"
       id="circle6637" />
    <circle
       r="3"
       cy="211.5079"
       cx="328.23499"
       style="fill:#00ff00;stroke:#090b0c;stroke-opacity:1"
       id="circle6639" />
    <circle
       id="circle6641"
       style="fill:#00ff00;stroke:#090b0c;stroke-opacity:1"
       cx="358.94925"
       cy="105.07935"
       r="3" />
    <circle
       id="circle6643"
       style="fill:#00ff00;stroke:#090b0c;stroke-opacity:1"
       cx="336.09213"
       cy="63.650772"
       r="3" />
    <circle
       id="circle6645"
       style="fill:#00ff00;stroke:#090b0c;stroke-opacity:1"
       cx="383.23502"
       cy="59.365051"
       r="3" />
    <circle
       id="circle6647"
       style="fill:#00ff00;stroke:#090b0c;stroke-opacity:1"
       cx="419.66354"
       cy="86.507927"
       r="3" />
    <circle
       id="circle6649"
       style="fill:#00ff00;stroke:#090b0c;stroke-opacity:1"
       cx="328.94925"
       cy="87.222221"
       r="3" />
    <circle
       id="circle6651"
       style="fill:#00ff00;stroke:#090b0c;stroke-opacity:1"
       cx="601.8064"
       cy="57.936489"
       r="3" />
    <circle
       id="circle6653"
       style="fill:#00ff00;stroke:#090b0c;stroke-opacity:1"
       cx="594.66351"
       cy="81.507927"
       r="3" />
    <circle
       r="3"
       cy="93.65078"
       cx="530.37787"
       style="fill:#00ff00;stroke:#090b0c;stroke-opacity:1"
       id="circle6655" />
    <circle
       r="3"
       cy="93.65078"
       cx="557.52069"
       style="fill:#00ff00;stroke:#090b0c;stroke-opacity:1"
       id="circle6657" />
    <circle
       r="3"
       cy="52.222202"
       cx="534.66357"
       style="fill:#00ff00;stroke:#090b0c;stroke-opacity:1"
       id="circle6659" />
    <circle
       r="3"
       cy="47.936481"
       cx="581.80646"
       style="fill:#00ff00;stroke:#090b0c;stroke-opacity:1"
       id="circle6661" />
    <circle
       r="3"
       cy="75.793648"
       cx="527.52069"
       style="fill:#00ff00;stroke:#090b0c;stroke-opacity:1"
       id="circle6663" />
    <rect
       style="opacity:1;fill:none;fill-opacity:1;stroke:none;stroke-width:2;stroke-miterlimit:4;stroke-dasharray:none;stroke-dashoffset:0;stroke-opacity:1"
       id="rect6997"
       width="574.28571"
       height="431.42856"
       x="151.42857"
       y="3.7907536" />
    <g
       inkscape:export-ydpi="90"
       inkscape:export-xdpi="90"
       style="stroke-width:2;stroke-miterlimit:4;stroke-dasharray:2, 2;stroke-dashoffset:0"
       transform="matrix(0.61100278,0,0,0.80163245,160.14413,203.41481)"
       id="g5723">
      <rect
         style="opacity:1;fill:none;fill-opacity:1;stroke:#000000;stroke-width:2;stroke-miterlimit:4;stroke-dasharray:2, 2;stroke-dashoffset:0;stroke-opacity:0.99500002"
         id="rect5704"
         width="13.131983"
         height="218.19295"
         x="120.07508"
         y="465.29025" />
      <path
         style="fill:none;fill-rule:evenodd;stroke:#000000;stroke-width:2;stroke-linecap:butt;stroke-linejoin:miter;stroke-miterlimit:4;stroke-dasharray:2, 2;stroke-dashoffset:0;stroke-opacity:1"
         d="m 124.28376,465.03772 0.25254,218.19295"
         id="path5709"
         inkscape:connector-curvature="0" />
      <path
         inkscape:connector-curvature="0"
         id="path5713"
         d="m 129.10518,465.03772 0.25254,218.19295"
         style="fill:none;fill-rule:evenodd;stroke:#000000;stroke-width:2;stroke-linecap:butt;stroke-linejoin:miter;stroke-miterlimit:4;stroke-dasharray:2, 2;stroke-dashoffset:0;stroke-opacity:1" />
    </g>
    <g
       inkscape:export-ydpi="90"
       inkscape:export-xdpi="90"
       style="stroke-width:2;stroke-miterlimit:4;stroke-dasharray:1.99999999, 1.99999999;stroke-dashoffset:0"
       transform="matrix(0.0010664,0.80163123,-0.61100186,0.00139911,659.31864,643.6512)"
       id="g5728">
      <rect
         y="465.29025"
         x="120.07508"
         height="218.19295"
         width="13.131983"
         id="rect5730"
         style="opacity:1;fill:none;fill-opacity:1;stroke:#000000;stroke-width:2;stroke-miterlimit:4;stroke-dasharray:1.99999999, 1.99999999;stroke-dashoffset:0;stroke-opacity:0.99500002" />
      <path
         inkscape:connector-curvature="0"
         id="path5732"
         d="m 124.28376,465.03772 0.25254,218.19295"
         style="fill:none;fill-rule:evenodd;stroke:#000000;stroke-width:2;stroke-linecap:butt;stroke-linejoin:miter;stroke-miterlimit:4;stroke-dasharray:1.99999999, 1.99999999;stroke-dashoffset:0;stroke-opacity:1" />
      <path
         style="fill:none;fill-rule:evenodd;stroke:#000000;stroke-width:2;stroke-linecap:butt;stroke-linejoin:miter;stroke-miterlimit:4;stroke-dasharray:1.99999999, 1.99999999;stroke-dashoffset:0;stroke-opacity:1"
         d="m 129.10518,465.03772 0.25254,218.19295"
         id="path5734"
         inkscape:connector-curvature="0" />
    </g>
    <g
       inkscape:export-ydpi="90"
       inkscape:export-xdpi="90"
       style="stroke-width:2;stroke-miterlimit:4;stroke-dasharray:2, 2;stroke-dashoffset:0"
       transform="matrix(0.61100278,0,0,0.80163245,301.89212,203.19798)"
       id="g5736">
      <rect
         style="opacity:1;fill:none;fill-opacity:1;stroke:#000000;stroke-width:2;stroke-miterlimit:4;stroke-dasharray:2, 2;stroke-dashoffset:0;stroke-opacity:0.99500002"
         id="rect5738"
         width="13.131983"
         height="218.19295"
         x="120.07508"
         y="465.29025" />
      <path
         style="fill:none;fill-rule:evenodd;stroke:#000000;stroke-width:2;stroke-linecap:butt;stroke-linejoin:miter;stroke-miterlimit:4;stroke-dasharray:2, 2;stroke-dashoffset:0;stroke-opacity:1"
         d="m 124.28376,465.03772 0.25254,218.19295"
         id="path5740"
         inkscape:connector-curvature="0" />
      <path
         inkscape:connector-curvature="0"
         id="path5742"
         d="m 129.10518,465.03772 0.25254,218.19295"
         style="fill:none;fill-rule:evenodd;stroke:#000000;stroke-width:2;stroke-linecap:butt;stroke-linejoin:miter;stroke-miterlimit:4;stroke-dasharray:2, 2;stroke-dashoffset:0;stroke-opacity:1" />
    </g>
    <path
       inkscape:export-ydpi="90"
       inkscape:export-xdpi="90"
       inkscape:connector-curvature="0"
       id="path5782"
       d="m 242.20463,668.67979 c 2.62313,0 5.24625,0 7.86938,0 0.51434,0 1.02868,0 1.54301,0 0.20574,0 0.41306,-0.0335 0.61721,0 0.21043,0.0345 0.41261,0.12924 0.61721,0.20244 0.36125,0.12926 0.72821,0.237 1.08011,0.40489 0.21617,0.10313 0.39603,0.32198 0.6172,0.40489 0.14837,0.0556 0.30861,0 0.46291,0 0.41147,0 0.82294,0 1.23441,0 0.92581,0 1.85162,0 2.77742,0 0.36004,0 0.72008,0 1.08012,0 0.1543,0 0.31015,-0.0286 0.4629,0 0.20994,0.0394 0.40644,0.17172 0.61721,0.20243 0.25559,0.0373 0.51784,-0.0555 0.77151,0 0.0718,0.0157 0.10286,0.13497 0.1543,0.20245 0.25716,0.0675 0.51055,0.16821 0.77151,0.20244 0.25589,0.0336 0.51933,-0.0661 0.7715,0 1.92767,0.50582 -0.47952,0.40333 1.69732,0.60733 0.41042,0.0385 0.82576,-0.0631 1.23441,0 0.47095,0.0727 0.91687,0.34298 1.38872,0.40489 0.56296,0.0738 1.13241,-0.0412 1.69731,0 0.36313,0.0265 0.71749,0.16585 1.08011,0.20244 0.30769,0.031 0.62642,-0.0982 0.92581,0 0.33472,0.10979 0.60868,0.42901 0.92581,0.60733 0.11259,0.0633 0.63309,-0.0605 0.77151,0 0.1091,0.0477 0.19703,0.16584 0.3086,0.20244 0.24266,0.0796 0.52584,-0.0644 0.77151,0 0.20795,0.0546 0.40727,0.1631 0.6172,0.20244 0.15275,0.0286 0.3116,-0.0397 0.46291,0 0.11277,0.0296 0.20289,0.14301 0.3086,0.20245 0.25717,0.13496 0.51434,0.26992 0.77151,0.40488 0.0514,0 0.10551,-0.0213 0.1543,0 0.26277,0.11492 0.5028,0.31675 0.77151,0.40489 0.14969,0.0491 0.3086,0 0.4629,0 0.20574,0 0.41354,-0.0382 0.61721,0 0.16101,0.0302 0.30247,0.16736 0.4629,0.20244 0.1522,0.0333 0.31964,-0.0752 0.46291,0 0.25119,0.32956 0.28816,0.46342 0.6172,0.60733 0.0488,0.0213 0.10287,0 0.15431,0 0.20573,0 0.41146,0 0.6172,0 0.10287,0 0.20714,-0.0222 0.30861,0 0.20917,0.0458 0.41146,0.13496 0.6172,0.20244 0.41147,0.13496 0.83205,0.22891 1.23441,0.40489 1.20794,0.52827 -1.52126,-0.22701 1.23441,0.60732 0.65918,0.19959 1.34552,0.21235 2.00593,0.40489 0.57866,0.16871 0.39617,0.21025 0.9258,0.60733 0.19971,0.14973 0.4175,0.25516 0.61721,0.40489 0.16101,0.12071 0.28697,0.32794 0.4629,0.40488 0.14639,0.064 0.31016,-0.0286 0.46291,0 0.20993,0.0394 0.40802,0.1567 0.6172,0.20244 0.10147,0.0222 0.20677,-0.0191 0.3086,0 0.25963,0.0487 0.51128,0.15977 0.77151,0.20244 0.15311,0.0251 0.31653,-0.064 0.46291,0 0.17593,0.077 0.29072,0.31453 0.4629,0.40489 0.0955,0.0501 0.20677,-0.0191 0.30861,0 0.25962,0.0487 0.51433,0.13497 0.7715,0.20245 0.30861,0 0.61848,-0.0366 0.92581,0 3.11762,0.37184 -1.91995,0.0398 1.69732,0.40488 0.35898,0.0362 0.72007,0 1.08011,0 0.97724,0 1.95448,0 2.93173,0 1.08011,0 2.16022,0 3.24033,0 0.36004,0 0.72007,0 1.08011,0 0.1543,0 0.31321,0.0491 0.4629,0 0.0706,-0.0232 0.083,-0.18373 0.15431,-0.20245 0.40348,-0.10587 0.83877,0.14831 1.23441,0 0.17831,-0.0669 0.29703,-0.29607 0.4629,-0.40488 0.24774,-0.16251 0.50874,-0.28997 0.77151,-0.40489 0.46778,-0.20457 0.92093,-0.2003 1.38871,-0.40488 0.21822,-0.0954 0.39899,-0.30945 0.61721,-0.40488 0.2488,-0.10882 0.51549,-0.12781 0.77151,-0.20245 0.20701,-0.0604 0.40727,-0.16309 0.6172,-0.20244 0.15275,-0.0286 0.31454,0.0556 0.46291,0 0.57854,-0.21687 0.94122,-0.88062 1.54302,-1.01222 0.1522,-0.0333 0.3086,0 0.4629,0 0.20573,-0.13496 0.39899,-0.30945 0.6172,-0.40488 0.0976,-0.0426 0.21102,0.0426 0.30861,0 0.069,-0.0302 0.083,-0.18373 0.1543,-0.20244 0.20174,-0.0529 0.41354,0.0382 0.6172,0 0.16102,-0.0301 0.30861,-0.13496 0.46291,-0.20245 0.25717,0 0.51632,0.0419 0.7715,0 0.17716,-0.029 1.21776,-0.60004 1.23442,-0.60733 0.20118,-0.088 0.41864,-0.10475 0.6172,-0.20243 0.21538,-0.10597 0.39899,-0.30946 0.61721,-0.40489 0.0976,-0.0427 0.2166,0.0604 0.3086,0 0.23002,-0.15089 0.38083,-0.47442 0.61721,-0.60733 0.14182,-0.0798 0.3116,0.0397 0.46291,0 0.11277,-0.0296 0.20182,-0.1464 0.30859,-0.20244 0.15102,-0.0793 0.32344,-0.0926 0.46291,-0.20245 0.12474,-0.0982 0.17353,-0.334 0.30861,-0.40488 0.14326,-0.0752 0.3116,0.0397 0.4629,0 0.11278,-0.0296 0.20574,-0.13497 0.3086,-0.20244 0.20574,-0.0675 0.40678,-0.16794 0.61721,-0.20245 0.20415,-0.0335 0.41761,0.0655 0.6172,0 0.22315,-0.0732 0.40184,-0.29892 0.61721,-0.40488 0.68953,-0.33925 1.45799,-0.31638 2.16022,-0.60733 1.71325,-0.70983 0.89062,-0.7751 2.31452,-1.21466 1.11953,-0.3456 2.26921,-0.49892 3.39464,-0.80977 1.32403,-0.36571 1.11924,-0.50317 2.46882,-0.60733 5.42451,-0.41864 -2.36953,0.53088 2.62313,-0.40489 0.3055,-0.0572 0.6172,0 0.92581,0 0.41147,0 0.82294,0 1.23441,0 0.41147,0 0.82546,0.0596 1.23441,0 0.52132,-0.076 1.02376,-0.30756 1.54302,-0.40488 0.20366,-0.0381 0.42014,0.0776 0.6172,0 2.1564,-0.84876 -0.44788,-0.60733 2.16022,-0.60733 2.36596,0 4.73192,0 7.09787,0 0.56577,0 1.13154,0 1.69732,0 0.1543,0 0.3086,0 0.4629,0 0.1543,0 0.3107,0.0333 0.46291,0 0.16043,-0.0351 0.30341,-0.16059 0.4629,-0.20244 0.10087,-0.0265 0.20574,0 0.30861,0 0.1543,-0.0675 0.30511,-0.15069 0.4629,-0.20244 0.19363,-0.0635 0.42357,0.0635 0.6172,0 0.0706,-0.0232 0.0892,-0.15977 0.1543,-0.20244 0.046,-0.0301 0.10287,0 0.15431,0 0.10287,0 0.20573,0 0.3086,0 0.36004,0 0.72008,0 1.08011,0 0.82294,0 1.64588,0 2.46882,0 0.30861,0 0.61721,0 0.92581,0 0.15431,0 0.30861,0 0.46291,0 0.10287,0 0.21101,0.0426 0.3086,0 0.069,-0.0301 0.10287,-0.13497 0.1543,-0.20245 0.10287,-0.13496 0.18756,-0.29901 0.30861,-0.40489 0.0428,-0.0374 0.10551,0.0213 0.1543,0 0.10911,-0.0477 0.20573,-0.13495 0.3086,-0.20243 0.1543,-0.0675 0.30652,-0.14382 0.46291,-0.20245 0.2039,-0.0764 0.4203,-0.0991 0.6172,-0.20244 0.0675,-0.0354 0.0868,-0.167 0.1543,-0.20245 0.1969,-0.10333 0.4133,-0.126 0.61721,-0.20244 0.15639,-0.0586 0.30247,-0.16736 0.4629,-0.20244 0.15221,-0.0333 0.31071,0.0333 0.46291,0 0.16044,-0.0351 0.30511,-0.15069 0.4629,-0.20244 0.0998,-0.0327 0.21102,0.0426 0.30861,0 0.1091,-0.0477 0.21291,-0.11875 0.3086,-0.20245 0.23923,-0.20925 0.29232,-0.52207 0.61721,-0.60732 1.09441,0 0.0904,0.14315 0.6172,-0.20244 0.046,-0.0301 0.11316,0.0405 0.1543,0 0.23276,-0.22905 0.41147,-0.53986 0.61721,-0.80978 0.0514,-0.0675 0.0853,-0.17226 0.1543,-0.20244 0.0976,-0.0426 0.20574,0 0.30861,0 0.10286,-0.13496 0.18755,-0.29901 0.30859,-0.40489 0.0428,-0.0374 0.11794,0.0477 0.15431,0 0.0364,-0.0477 -0.023,-0.14209 0,-0.20244 0.0325,-0.0854 0.10287,-0.13496 0.1543,-0.20244 0.0514,-0.0675 0.0892,-0.15976 0.1543,-0.20244 0.092,-0.0604 0.2166,0.0604 0.3086,0 0.13012,-0.0854 0.17849,-0.31953 0.30861,-0.40489 0.092,-0.0604 0.21101,0.0426 0.3086,0 0.21822,-0.0954 0.39899,-0.30945 0.61721,-0.40489 0.0488,-0.0213 0.10829,0.0301 0.1543,0 0.0651,-0.0426 0.0892,-0.15976 0.1543,-0.20243 0.046,-0.0302 0.1083,0.0301 0.1543,0 0.13012,-0.0854 0.18756,-0.29902 0.3086,-0.40489 0.0957,-0.0837 0.20574,-0.13497 0.3086,-0.20245 0.10287,-0.0675 0.19584,-0.17284 0.30861,-0.20244 0.1513,-0.0397 0.3086,0 0.46291,0 0.0514,0 0.1044,0.0163 0.15429,0 0.15779,-0.0518 0.31743,-0.10701 0.46291,-0.20245 0.18516,-0.12146 0.27774,-0.48586 0.4629,-0.60732 0.12344,-0.081 0.33947,0.081 0.46291,0 0.0651,-0.0426 0.0892,-0.15977 0.1543,-0.20244 0.14548,-0.0954 0.30511,-0.15069 0.4629,-0.20245 0.0499,-0.0163 0.15431,-0.0675 0.15431,0 0,0.0675 -0.19067,0.0477 -0.15431,0 0.0813,-0.1067 0.20574,-0.13495 0.30861,-0.20243"
       style="fill:none;fill-rule:evenodd;stroke:#00ddb2;stroke-width:1.39971375;stroke-linecap:butt;stroke-linejoin:miter;stroke-miterlimit:4;stroke-dasharray:1.39971377, 1.39971377;stroke-dashoffset:0;stroke-opacity:0.89952153" />
    <path
       inkscape:export-ydpi="90"
       inkscape:export-xdpi="90"
       inkscape:connector-curvature="0"
       id="path5784"
       d="m 242.51323,735.89079 c 0.25717,-0.13496 0.50113,-0.32605 0.77151,-0.40489 0.20084,-0.0585 0.41147,0 0.61721,0 0.66864,0 1.33728,0 2.00592,0 1.69731,0 3.39463,0 5.09195,0 0.97724,0 1.95449,0 2.93173,0 0.3086,0 0.6214,-0.0665 0.92581,0 0.32087,0.0702 0.61302,0.28764 0.9258,0.40489 0.0494,0.0185 0.10287,0 0.15431,0 0.1543,0 0.31652,-0.064 0.4629,0 0.17593,0.077 0.28697,0.32794 0.46291,0.40488 0.25219,0.1103 0.80266,-0.091 1.08011,0 0.11157,0.0366 0.19949,0.15473 0.3086,0.20245 0.0903,0.0394 1.06292,0 1.23441,0 0.87438,0 1.74875,0 2.62313,0 2.41739,0 4.83478,0 7.25217,0 1.49158,0 2.98316,0 4.47474,0 0.46291,0 0.92581,0 1.38872,0 0.10654,0 0.57029,0.0308 0.6172,0 0.0651,-0.0427 0.0837,-0.1793 0.1543,-0.20245 0.51434,-0.1687 0.3429,0.11247 0.77151,0 0.15949,-0.0418 0.30342,-0.16059 0.46291,-0.20244 0.10086,-0.0265 0.20713,0.0222 0.3086,0 0.41836,-0.0915 0.81605,-0.3134 1.23441,-0.40488 0.20573,-0.045 0.59149,0.0675 0.77151,0 0.22116,-0.0829 0.39899,-0.30946 0.6172,-0.40489 0.0976,-0.0426 0.20574,0 0.30861,0 0.41147,0 0.82294,0 1.23441,0 0.10287,0 0.20573,0 0.3086,0 0.10287,0 0.20881,0.0327 0.3086,0 0.11158,-0.0366 0.19703,-0.16584 0.30861,-0.20245 0.14969,-0.0491 0.3086,0 0.4629,0 0.51434,0 1.02868,0 1.54302,0 1.23441,0 2.46882,0 3.70323,0 1.69732,0 3.39464,0 5.09195,0 0.56577,0 1.13155,0 1.69732,0 0.25717,0 0.51539,-0.0305 0.77151,0 0.31157,0.0372 0.61536,0.15154 0.92581,0.20245 1.23441,0.20244 -1.23442,-0.40488 0.92581,0 0.16101,0.0301 0.30125,0.17887 0.4629,0.20244 2.47172,0 -0.29017,-0.0982 1.54301,0.20245 0.20415,0.0335 0.41148,0 0.61721,0 0.1543,0 0.3116,-0.0397 0.46291,0 0.11277,0.0296 0.19582,0.17285 0.3086,0.20244 0.35601,0.0934 0.89893,-0.14671 1.23441,0 0.13801,0.0604 0.19222,0.29037 0.3086,0.40488 0.092,0.0905 0.1995,0.15473 0.3086,0.20245 0.0488,0.0213 0.10287,0 0.15431,0 0.1543,0 0.3116,-0.0397 0.4629,0 0.11278,0.0296 0.1995,0.15473 0.3086,0.20244 0.13863,0.0606 0.32079,-0.0466 0.46291,0 0.15779,0.0518 0.30511,0.15068 0.4629,0.20244 0.0499,0.0164 0.1083,-0.0301 0.15431,0 0.16586,0.10881 0.29703,0.29608 0.4629,0.40489 0.0798,0.0523 0.92799,-0.0333 1.08011,0 0.16044,0.0351 0.30247,0.16736 0.46291,0.20244 0.1522,0.0333 0.3086,0 0.4629,0 0.36004,0 0.72007,0 1.08011,0 1.08011,0 2.16022,0 3.24033,0 0.36004,0 0.72008,0 1.08011,0 0.1543,0 0.31016,-0.0286 0.46291,0 0.20993,0.0394 0.40802,0.1567 0.6172,0.20244 0.10147,0.0222 0.20574,0 0.30861,0 0.1543,0 0.3086,0 0.4629,0 0.36004,0 0.72007,0 1.08011,0 1.02868,0 2.05735,0 3.08603,0 0.77151,0 1.54301,0 2.31452,0 0.20574,0 0.41147,0 0.61721,0 0.10287,0 0.21101,0.0427 0.3086,0 0.21822,-0.0954 0.39405,-0.33169 0.61721,-0.40488 0.19959,-0.0655 0.41427,0.0444 0.61721,0 0.11344,-0.0248 0.19515,-0.17764 0.3086,-0.20244 0.20293,-0.0444 0.41306,0.0335 0.61721,0 0.21043,-0.0345 0.40677,-0.16793 0.6172,-0.20245 0.20415,-0.0335 0.41427,0.0444 0.6172,0 0.11345,-0.0248 0.19703,-0.16585 0.30861,-0.20244 0.0998,-0.0327 0.20574,0 0.3086,0 0.20574,0 0.41147,0 0.61721,0 0.1543,0 0.31964,0.0752 0.4629,0 0.13508,-0.0709 0.17353,-0.334 0.30861,-0.40489 0.14326,-0.0752 0.3116,0.0397 0.4629,0 0.11278,-0.0296 0.19516,-0.17763 0.3086,-0.20244 0.20294,-0.0443 0.41147,0 0.61721,0 0.41147,0 0.82294,0 1.23441,0 1.02868,0 2.05735,0 3.08603,0 0.61581,0 0.30999,0 0.92581,0 0.25717,0 0.51692,0.0477 0.77151,0 0.11385,-0.0213 0.19583,-0.17285 0.3086,-0.20244 0.15131,-0.0397 0.3086,0 0.46291,0 0.25717,0 0.51433,0 0.7715,0 0.10287,0 0.20774,0.0265 0.30861,0 0.15948,-0.0418 0.30341,-0.1606 0.4629,-0.20244 0.10087,-0.0265 0.21309,0.0501 0.30861,0 0.17218,-0.0904 0.29072,-0.31453 0.4629,-0.40489 0.0955,-0.0501 0.20573,0 0.3086,0 0.15431,0 0.3107,0.0333 0.4629,0 0.16044,-0.0351 0.30861,-0.13496 0.46291,-0.20245 0.20573,0 0.41306,0.0335 0.61721,0 0.18423,-0.0302 0.86911,-0.28623 1.08011,-0.40488 0.21142,-0.11888 0.41147,-0.26992 0.6172,-0.40488 0.10287,-0.0675 0.19516,-0.17764 0.3086,-0.20245 0.20294,-0.0443 0.41427,0.0444 0.61721,0 0.008,-0.002 0.59134,-0.39131 0.61721,-0.40488 0.15101,-0.0793 0.31743,-0.10701 0.4629,-0.20244 0.0651,-0.0426 0.0837,-0.1793 0.1543,-0.20245 0.1497,-0.0491 0.3116,0.0397 0.46291,0 0.11277,-0.0296 0.19702,-0.16584 0.3086,-0.20244 0.0998,-0.0327 0.21102,0.0426 0.3086,0 0.069,-0.0301 0.0853,-0.17226 0.15431,-0.20245 0.0976,-0.0426 0.20573,0 0.3086,0 0.20573,-0.0675 0.41602,-0.11445 0.61721,-0.20243 2.2429,-1.17708 -0.24536,-0.0166 1.23441,-0.40489 0.11277,-0.0296 0.19516,-0.17763 0.3086,-0.20245 0.40587,-0.0887 0.82854,0.0888 1.23441,0 0.11344,-0.0248 0.19583,-0.17284 0.30861,-0.20244 0.15463,-0.0406 0.72488,0 0.92581,0 0.0889,0 0.71526,-0.0369 0.7715,0 0.16587,0.10881 0.31455,0.2589 0.4629,0.40489 0.0582,0.0572 0.0868,0.167 0.15431,0.20244 0.1969,0.10333 0.42031,0.0991 0.6172,0.20245 0.0675,0.0354 0.0961,0.14518 0.1543,0.20243 0.083,0.0816 0.59202,0.54846 0.77151,0.60734 0.71673,0.23508 0.82111,0.0739 1.38872,0.40488 2.40613,1.57842 -0.2022,-0.0228 1.54301,0.80977 0.36813,0.17563 0.7085,0.44481 1.08011,0.60733 0.0976,0.0427 0.20773,-0.0265 0.3086,0 0.15949,0.0418 0.30652,0.14382 0.46291,0.20244 0.20391,0.0764 0.4203,0.0991 0.61721,0.20245 0.0675,0.0354 0.0853,0.17226 0.15429,0.20244 0.0636,0.0278 1.07651,8e-4 1.08012,0 0.11277,-0.0296 0.19582,-0.17285 0.3086,-0.20244 0.1513,-0.0397 0.3086,0 0.4629,0 0.15431,0 0.30861,0 0.46291,0 0.1543,0 0.31454,0.0556 0.4629,0 0.22117,-0.0829 0.39604,-0.32199 0.61721,-0.40489 0.14837,-0.0556 0.3107,0.0333 0.4629,0 0.16044,-0.0351 0.3019,-0.17226 0.46291,-0.20245 0.20367,-0.0381 0.41147,0 0.61721,0 0.10286,0 0.21101,0.0427 0.3086,0 0.069,-0.0301 0.0853,-0.17226 0.1543,-0.20243 0.14638,-0.0641 0.31652,0.064 0.4629,0 0.10911,-0.0477 0.20574,-0.13496 0.30861,-0.20245 0.1543,0 0.31321,0.0491 0.4629,0 0.0706,-0.0232 0.10287,-0.13496 0.1543,-0.20244 0.1543,-0.0675 0.30247,-0.16737 0.46291,-0.20244 0.1522,-0.0333 0.3086,0 0.4629,0 0.1543,-0.0675 0.30342,-0.1606 0.46291,-0.20245 0.10087,-0.0264 0.20573,0 0.3086,0 0.20573,0 0.41427,0.0444 0.6172,0 0.11345,-0.0248 0.1995,-0.15472 0.30861,-0.20244 0.0488,-0.0213 0.10287,0 0.1543,0 0.22149,0 0.76342,0.0532 0.92581,0 0.0706,-0.0232 0.0892,-0.15976 0.1543,-0.20244 0.046,-0.0302 0.10287,0 0.1543,0 0.1543,0 0.31071,0.0333 0.46291,0 0.64216,-0.14042 0.26782,-0.18461 0.7715,-0.40489 0.0488,-0.0213 0.1083,0.0301 0.15431,0 0.0651,-0.0426 0.0853,-0.17226 0.1543,-0.20244 0.0706,-0.0309 0.54854,0.0451 0.6172,0 0.0651,-0.0426 0.10287,-0.13496 0.15431,-0.20245 0.10286,0 0.2088,0.0327 0.3086,0 0.11157,-0.0366 0.20573,-0.13495 0.3086,-0.20243 0.10287,-0.0675 0.2166,-0.11191 0.30861,-0.20245 0.21497,-0.21153 0.42253,-0.55437 0.6172,-0.80977 0.10287,-0.13496 0.18756,-0.29901 0.3086,-0.40488 0.0957,-0.0837 0.21291,-0.11875 0.3086,-0.20245 0.12105,-0.10587 0.17849,-0.31953 0.30861,-0.40489 0.046,-0.0301 0.10829,0.0301 0.1543,0 0.0824,-0.054 0.38167,-0.50074 0.4629,-0.60732"
       style="fill:none;fill-rule:evenodd;stroke:#00ddb2;stroke-width:1.39971375;stroke-linecap:butt;stroke-linejoin:miter;stroke-miterlimit:4;stroke-dasharray:1.39971377, 1.39971377;stroke-dashoffset:0;stroke-opacity:0.89952153" />
    <path
       inkscape:export-ydpi="90"
       inkscape:export-xdpi="90"
       inkscape:connector-curvature="0"
       id="path5786"
       d="m 374.44102,723.54178 c -0.20573,-0.0675 -0.41408,-0.1225 -0.6172,-0.20244 -0.31158,-0.12264 -0.61198,-0.29259 -0.92581,-0.40488 -0.25302,-0.0905 -0.51708,-0.119 -0.77151,-0.20245 -0.36326,-0.11915 -0.71685,-0.28573 -1.08011,-0.40489 -0.0499,-0.0163 -0.1083,0.0301 -0.1543,0 -0.16587,-0.1088 -0.29073,-0.31452 -0.46291,-0.40488 -0.0955,-0.0501 -0.20773,0.0265 -0.3086,0 -0.15949,-0.0418 -0.30511,-0.15069 -0.4629,-0.20244 -0.1996,-0.0655 -0.41762,0.0655 -0.61721,0 -0.0706,-0.0232 -0.0892,-0.15977 -0.1543,-0.20245 -0.046,-0.0301 -0.10287,0 -0.1543,0 -0.20574,0 -0.41147,0 -0.61721,0 -0.46291,0 -0.92581,0 -1.38872,0 -0.15429,0 -0.30979,-0.0251 -0.4629,0 -2.34118,0.38395 0.64194,-0.0588 -1.38871,0.60733 -0.19959,0.0655 -0.41306,-0.0335 -0.61721,0 -0.21043,0.0345 -0.40925,0.14788 -0.6172,0.20244 -0.16937,0.0444 -0.5852,0 -0.77151,0 -0.56577,0 -1.13155,0 -1.69732,0 -1.80018,0 -3.60037,0 -5.40055,0 -2.16022,0 -4.32044,0 -6.48067,0 -0.56577,0 -1.13154,0 -1.69731,0 -0.3086,0 -0.62079,0.0616 -0.92581,0 -0.37009,-0.0747 -0.72007,-0.26992 -1.08011,-0.40488 -0.41147,0 -0.82655,0.0714 -1.23441,0 -0.37116,-0.0649 -0.70895,-0.33996 -1.08011,-0.40489 -0.40786,-0.0713 -0.82708,0.0763 -1.23441,0 -0.32203,-0.0604 -0.60494,-0.33472 -0.92581,-0.40489 -0.30441,-0.0665 -0.61721,0 -0.92581,0 -0.3086,0 -0.61721,0 -0.92581,0 -0.20573,0 -0.41218,0.0224 -0.61721,0 -0.41324,-0.0452 -0.82227,-0.14236 -1.23441,-0.20244 -0.15336,-0.0224 -0.3086,0 -0.46291,0 -0.30859,0 -0.6172,0 -0.9258,0 -0.20574,0 -0.41306,-0.0335 -0.61721,0 -0.21043,0.0345 -0.40727,0.1631 -0.6172,0.20244 -1.43869,0.26966 0.90115,-0.49801 -1.23442,0.20245 -0.15779,0.0518 -0.30189,0.17226 -0.4629,0.20244 -0.20367,0.0382 -0.41354,-0.0382 -0.61721,0 -0.18859,0.0354 -1.2265,0.60344 -1.23441,0.60733 -0.15229,0.075 -0.31189,0.12319 -0.4629,0.20244 -0.10679,0.056 -0.1995,0.15473 -0.30861,0.20245 -0.20118,0.088 -0.41329,0.12601 -0.6172,0.20244 -0.15639,0.0586 -0.30861,0.13496 -0.4629,0.20245 -0.15431,0.0675 -0.31341,0.11837 -0.46291,0.20243 -0.52673,-0.14325 -0.59407,0.59216 -0.92581,0.80978 -0.18968,0.12443 -0.41602,0.11446 -0.61721,0.20243 -0.26276,0.11493 -0.50874,0.28998 -0.7715,0.40489 -0.40237,0.17597 -0.82294,0.26993 -1.23442,0.40489 -0.20573,0.0675 -0.40727,0.16309 -0.6172,0.20245 -0.42004,0.0787 -0.64006,-0.10498 -1.08011,0 -0.36841,0.0879 -0.71002,0.33018 -1.08011,0.40488 -0.30502,0.0616 -0.61721,0 -0.92581,0 -0.51434,0 -1.02868,0 -1.54302,0 -0.66863,0 -1.33728,0 -2.00592,0 -0.20573,0 -0.41249,0.0268 -0.6172,0 -0.54575,0.0852 -1.0217,-0.32889 -1.54302,-0.40488 -0.2556,-0.0373 -0.51591,0.0373 -0.7715,0 -0.21077,-0.0307 -0.40644,-0.17172 -0.61721,-0.20245 -0.2556,-0.0373 -0.51849,0.0604 -0.77151,0 -0.32005,-0.0763 -0.61423,-0.28225 -0.92581,-0.40489 -1.57899,-0.62149 0.3343,0.14059 -1.23441,-0.20244 -0.11344,-0.0248 -0.19583,-0.17285 -0.3086,-0.20245 -0.40662,-0.10668 -0.82295,-0.13495 -1.23441,-0.20243 -0.46291,0 -0.93211,0.0998 -1.38872,0 -1.1349,-0.49633 -1.59623,-0.76752 -2.77742,-1.01221 -1.26897,-0.26288 -1.68403,-0.20245 -2.93174,-0.20245 -0.36003,0 -0.72425,0.0718 -1.0801,0 -0.32152,-0.0649 -0.6043,-0.33999 -0.92581,-0.40489 -0.35586,-0.0718 -0.72707,0.0926 -1.08011,0 -0.43092,-0.11307 -0.80249,-0.50107 -1.23441,-0.60732 -0.40443,-0.0995 -0.82375,0.0337 -1.23442,0 -3.50269,-0.28723 1.22619,-0.0758 -2.62313,-0.60734 -0.51151,-0.0706 -1.03122,0.0672 -1.54301,0 -1.79206,-0.23511 -1.58641,-0.70323 -3.54894,-1.01221 -0.6128,-0.0965 -1.23673,0.0701 -1.85161,0 -4.68438,-0.53442 1.10277,-0.32242 -3.24033,-0.60732 -0.5137,-0.0337 -1.02868,0 -1.54302,0 -0.41147,0 -0.82612,0.0669 -1.23441,0 -0.42086,-0.069 -0.81318,-0.33987 -1.23441,-0.40489 -0.45974,-0.0709 -0.92581,0 -1.38872,0 -0.41146,0 -0.82294,0 -1.23441,0 -1.28584,0 -2.57169,0 -3.85754,0 -1.02867,0 -2.05735,0 -3.08603,0 -0.1543,0 -0.3086,0 -0.4629,0 -0.20573,0 -0.41427,-0.0443 -0.61721,0 -0.11344,0.0248 -0.20289,0.143 -0.3086,0.20244 -0.25458,0.14315 -0.50874,0.28997 -0.7715,0.40489 -0.40237,0.17597 -0.82661,0.25201 -1.23442,0.40488 -0.86921,0.32583 -0.0514,0.0675 -1.08011,0.60733 -0.0477,0.0251 -0.1044,-0.0163 -0.1543,0 -0.1578,0.0518 -0.30511,0.15069 -0.46291,0.20244 -0.0499,0.0163 -0.10286,0 -0.1543,0 -0.20573,0 -0.41147,0 -0.6172,0 -0.10287,0 -0.20881,-0.0327 -0.30861,0 -0.11157,0.0366 -0.19702,0.16585 -0.3086,0.20244 -0.0998,0.0327 -0.20773,-0.0265 -0.3086,0 -0.15949,0.0418 -0.3086,0.13497 -0.4629,0.20245 -0.15431,0.0675 -0.3119,0.12319 -0.46291,0.20244 -0.10679,0.056 -0.19583,0.17285 -0.3086,0.20245 -0.30261,0.0794 -0.6232,-0.0794 -0.92581,0 -1.00153,0.2628 0.34388,0.20244 -0.61721,0.20244 -0.1543,0 -0.3086,0 -0.4629,0 -0.15431,0 -0.31322,-0.0491 -0.46291,0 -0.0706,0.0232 -0.0892,0.15976 -0.1543,0.20244 -0.046,0.0302 -0.10287,0 -0.1543,0 -0.10449,0 -1.00982,-0.0307 -1.08011,0 -0.069,0.0302 -0.0893,0.15976 -0.15431,0.20244 -0.0836,0.0548 -0.71886,-0.0276 -0.7715,0 -0.13507,0.0709 -0.17059,0.34454 -0.3086,0.40489 -0.19518,0.0854 -0.41354,-0.0382 -0.61721,0 -0.32203,0.0604 -0.60683,0.32118 -0.92581,0.40488 -0.28455,0.0747 -0.79728,-0.0742 -1.08011,0 -0.11278,0.0296 -0.1995,0.15473 -0.3086,0.20245 -0.0488,0.0213 -0.10287,0 -0.1543,0 -0.1543,0 -0.30861,0 -0.46291,0 -0.10287,0 -0.20574,0 -0.3086,0 -0.1543,0 -0.31964,-0.0752 -0.46291,0 -0.13507,0.0709 -0.17848,0.31953 -0.3086,0.40488 -0.0798,0.0524 -0.96421,-0.038 -1.08011,0 -0.0706,0.0232 -0.0892,0.15977 -0.1543,0.20245 -0.046,0.0301 -0.10287,0 -0.1543,0 -0.113,0 -0.77254,-0.0402 -0.92581,0 -0.15949,0.0418 -0.30511,0.15068 -0.4629,0.20243 -0.20444,0.0671 -0.55931,-0.0696 -0.77151,0 -0.0706,0.0232 -0.0892,0.15977 -0.1543,0.20245 -0.0563,0.0369 -0.6826,0 -0.77151,0 -0.51434,0 -1.02868,0 -1.54301,0 -1.74876,0 -3.49751,0 -5.24626,0"
       style="fill:none;fill-rule:evenodd;stroke:#00ddb2;stroke-width:1.39971375;stroke-linecap:butt;stroke-linejoin:miter;stroke-miterlimit:4;stroke-dasharray:1.39971377, 1.39971377;stroke-dashoffset:0;stroke-opacity:0.89952153" />
    <path
       inkscape:export-ydpi="90"
       inkscape:export-xdpi="90"
       inkscape:connector-curvature="0"
       id="path5788"
       d="m 241.58743,709.77567 c 1.27169,-0.83422 0.0408,-0.17761 1.08011,-0.40488 0.32087,-0.0702 0.61022,-0.30138 0.92581,-0.40489 0.15136,-0.0496 0.68405,0.0574 0.7715,0 0.16587,-0.10881 0.29072,-0.31452 0.46291,-0.40488 0.0955,-0.0501 0.20573,0 0.3086,0 0.30861,0 0.61721,0 0.92581,0 0.46291,0 0.92581,0 1.38871,0 0.20574,0 0.41547,-0.0529 0.61721,0 0.15949,0.0418 0.30341,0.16059 0.4629,0.20244 0.10087,0.0265 0.20774,-0.0264 0.30861,0 1.09914,0.28841 -0.26212,0.15331 1.08011,0.40488 0.15275,0.0286 0.31652,-0.0641 0.4629,0 1.98615,0.86861 -2.16196,-0.048 1.54302,0.80978 0.9055,0.47228 1.85951,0.0304 2.77743,0.20244 0.32202,0.0604 0.6172,0.26992 0.92581,0.40488 0.4629,0.13497 0.91687,0.34298 1.38871,0.40489 4.13542,0.54256 -0.74385,-0.612 3.39463,0.20244 0.46895,0.0923 0.91742,0.33618 1.38871,0.40489 0.46008,0.0671 0.92581,0 1.38872,0 0.25717,0 0.52092,-0.0758 0.77151,0 0.4282,0.12964 0.81349,0.44166 1.23441,0.60732 0.0871,0.0343 0.67017,0 0.7715,0 0.61721,0 1.23442,0 1.85162,0 1.38872,0 2.77743,0 4.16614,0 0.72008,0 1.44198,-0.0673 2.16022,0 0.72554,0.068 1.43516,0.32879 2.16023,0.40489 0.56397,0.0592 1.13154,0 1.69731,0 1.02868,0 2.05736,0 3.08603,0 0.61721,0 1.23441,0 1.85162,0 0.20573,0 0.41479,0.0483 0.61721,0 0.3684,-0.0879 0.71171,-0.31701 1.08011,-0.40489 4.00583,-0.95556 0.68014,-0.0531 4.16614,-0.40488 0.72524,-0.0732 1.43482,-0.33439 2.16022,-0.40489 0.66681,-0.0648 1.347,0.14906 2.00592,0 0.84965,-0.19219 1.63237,-0.73786 2.46883,-1.01221 0.60703,-0.19911 1.2344,-0.26993 1.85161,-0.40488 0.61721,-0.13496 1.22806,-0.33672 1.85162,-0.40489 0.61507,-0.0673 1.24281,0.13313 1.85162,0 0.34033,-0.0744 0.59848,-0.46418 0.92581,-0.60733 0.56437,-0.24682 0.98407,-0.20244 1.54301,-0.20244 0.1543,0 0.3116,0.0397 0.4629,0 0.11278,-0.0296 0.19449,-0.18372 0.30861,-0.20244 0.30622,-0.0502 0.6172,0 0.92581,0 0.4629,0 0.92581,0 1.38871,0 2.31452,0 4.62905,0 6.94357,0 6.58353,0 13.16706,0 19.75059,0 2.57169,0 5.14339,0 7.71508,0 0.51434,0 1.02867,0 1.54301,0 0.51434,0 1.03182,0.0746 1.54302,0 0.42153,-0.0615 0.81355,-0.33587 1.23441,-0.40489 0.40829,-0.0669 0.82294,0 1.23441,0 0.41147,0 0.82294,0 1.23441,0 1.02868,0 2.05736,0 3.08603,0 3.80611,0 7.61221,0 11.41831,0 1.23441,0 2.46883,0 3.70324,0 0.3086,0 0.61721,0 0.92581,0 0.10287,0 0.20573,0 0.3086,0 0.10287,0 0.21102,0.0426 0.3086,0 0.13802,-0.0604 0.17059,-0.34453 0.30861,-0.40488 0.0976,-0.0426 0.20881,0.0327 0.3086,0 0.11158,-0.0366 0.19703,-0.16585 0.3086,-0.20245 0.0998,-0.0327 0.20574,0 0.30861,0 0.0514,0 0.1083,0.0302 0.1543,0 0.0651,-0.0426 0.0837,-0.1793 0.1543,-0.20244 0.14969,-0.0491 0.3107,0.0333 0.4629,0 1.12099,-0.24512 -0.0542,-0.20244 0.77151,-0.20244 0.0861,0 0.70088,0.0309 0.77151,0 0.13801,-0.0604 0.17848,-0.31954 0.3086,-0.40489 0.046,-0.0301 0.10287,0 0.15431,0 0.0514,-0.0675 0.0892,-0.15976 0.15429,-0.20244 0.092,-0.0604 0.21102,0.0426 0.30861,0 0.1091,-0.0477 0.1995,-0.15473 0.3086,-0.20244 0.13887,-0.0608 0.32404,0.0608 0.46291,0 0.1091,-0.0477 0.20573,-0.13497 0.3086,-0.20245"
       style="fill:none;fill-rule:evenodd;stroke:#00ddb2;stroke-width:1.39971375;stroke-linecap:butt;stroke-linejoin:miter;stroke-miterlimit:4;stroke-dasharray:1.39971377, 1.39971377;stroke-dashoffset:0;stroke-opacity:0.89952153" />
    <path
       inkscape:export-ydpi="90"
       inkscape:export-xdpi="90"
       inkscape:connector-curvature="0"
       id="path5790"
       d="m 370.73779,694.99735 c -1.31677,-0.2468 -0.94095,-0.12676 -2.31453,-0.60733 -0.3618,-0.12658 -0.71458,-0.29832 -1.0801,-0.40489 -0.10042,-0.0293 -0.20714,0.0222 -0.30861,0 -0.20918,-0.0458 -0.40727,-0.16309 -0.6172,-0.20244 -0.15276,-0.0286 -0.31071,0.0333 -0.46291,0 -0.16043,-0.0351 -0.30189,-0.17226 -0.4629,-0.20244 -0.20367,-0.0381 -0.41148,0 -0.61721,0 -0.1543,0 -0.3086,0 -0.46291,0 -0.6172,0 -1.23441,0 -1.85162,0 -1.0801,0 -2.16021,0 -3.24033,0 -0.36003,0 -0.72086,-0.0314 -1.0801,0 -1.58172,0.13835 -0.97054,0.24596 -2.62313,0.60733 -0.45942,0.10046 -0.92811,0.11179 -1.38871,0.20244 -0.35421,0.0697 -2.82927,0.67495 -3.24034,0.80977 -0.52095,0.17088 -1.01277,0.49602 -1.54301,0.60733 -0.76351,0.16028 -1.54468,0.10775 -2.31452,0.20244 -0.87657,0.10782 -1.74444,0.33284 -2.62313,0.40489 -0.77,0.0632 -1.55351,-0.16641 -2.31452,0 -0.80218,0.1754 -1.51166,0.84232 -2.31452,1.01221 -0.81245,0.17193 -1.64589,0 -2.46883,0 -0.92581,0 -1.85566,-0.11337 -2.77743,0 -0.7332,0.0902 -1.4312,0.47069 -2.16022,0.60733 -5.42956,1.01765 -1.15021,-0.15337 -5.55485,0.80977 -0.77608,0.1697 -1.53164,0.50462 -2.31453,0.60733 -0.76767,0.10072 -1.54683,-0.10072 -2.31452,0 -0.78288,0.10271 -1.53843,0.43763 -2.31452,0.60733 -0.57078,0.12481 -4.50106,0.77505 -4.93765,0.80977 -0.82143,0.0653 -1.65091,-0.11923 -2.46882,0 -1.04263,0.15199 -2.04859,0.6056 -3.08603,0.80977 -1.02237,0.2012 -2.06555,0.18777 -3.08603,0.40489 -0.88667,0.18864 -1.74231,0.57864 -2.62313,0.80977 -0.92035,0.2415 -1.85161,0.40489 -2.77742,0.60732 -0.92581,0.20245 -1.84271,0.49584 -2.77743,0.60734 -0.76834,0.0916 -1.54302,0 -2.31452,0 -1.74875,0 -3.49751,0 -5.24626,0 -1.02867,0 -2.05735,0 -3.08602,0 -0.46291,0 -0.92581,0 -1.38872,0 -0.3086,0 -0.62319,0.0794 -0.92581,0 -0.47847,-0.12556 -0.92298,-0.41638 -1.38871,-0.60734 -0.3574,-0.14653 -0.72223,-0.26041 -1.08011,-0.40488 -0.31091,-0.12551 -0.60494,-0.33472 -0.92581,-0.40489 -0.30441,-0.0665 -0.62141,0.0665 -0.92581,0 -0.32087,-0.0701 -0.6172,-0.26992 -0.92581,-0.40488 -0.3086,-0.13496 -0.6172,-0.26992 -0.92581,-0.40489 -0.3086,-0.13496 -0.61423,-0.28224 -0.92581,-0.40488 -0.20312,-0.0799 -0.41602,-0.11446 -0.6172,-0.20244 -0.10911,-0.0477 -0.20182,-0.14641 -0.3086,-0.20244 -0.15102,-0.0793 -0.31189,-0.1232 -0.46291,-0.20245 -0.70814,-0.37163 0.0909,-0.0333 -0.6172,-0.40489 -0.15102,-0.0793 -0.31341,-0.11837 -0.46291,-0.20244 -0.21142,-0.11888 -0.41997,-0.24961 -0.61721,-0.40488 -0.0624,-0.0491 -0.0853,-0.17226 -0.1543,-0.20245 -0.0976,-0.0426 -0.2088,0.0327 -0.3086,0 -0.22315,-0.0732 -0.39899,-0.30945 -0.61721,-0.40488 -0.13887,-0.0608 -0.32403,0.0608 -0.4629,0 -0.21821,-0.0954 -0.39899,-0.30945 -0.61721,-0.40489 -0.20118,-0.088 -0.4133,-0.126 -0.61721,-0.20244 -0.15638,-0.0586 -0.30189,-0.17226 -0.4629,-0.20244 -0.20366,-0.0382 -0.41305,0.0335 -0.6172,0 -0.21043,-0.0345 -0.40678,-0.16794 -0.61721,-0.20245 -0.20415,-0.0335 -0.41147,0 -0.61721,0 -0.10287,0 -0.20969,0.037 -0.3086,0 -0.25717,-0.13496 -0.51434,-0.26992 -0.7715,-0.40488 -0.0514,-0.0675 -0.0892,-0.15976 -0.15431,-0.20244 -0.14548,-0.0954 -0.31189,-0.1232 -0.4629,-0.20245 -0.10678,-0.056 -0.19516,-0.17763 -0.3086,-0.20244 -0.20294,-0.0443 -0.41148,0 -0.61721,0 -0.20573,0 -0.41147,0 -0.61721,0 -0.56577,0 -1.13154,0 -1.69732,0 -0.20573,0 -0.41146,0 -0.6172,0 -0.10287,0 -0.2088,0.0327 -0.30861,0 -0.31558,-0.10351 -0.60825,-0.3123 -0.9258,-0.40488 -0.15063,-0.0439 -0.3086,0 -0.46291,0 -0.4629,0 -0.92581,0 -1.38871,0 -1.23441,0 -2.46882,0 -3.70324,0 -1.23297,0 0.4537,0.0491 -1.08011,-0.20245 -0.30622,-0.0502 -0.6172,0 -0.9258,0 -0.77151,0 -1.54302,0 -2.31453,0 -0.41147,0 -0.82294,0 -1.23441,0 -0.10287,0 -0.20574,0 -0.3086,0 -0.10287,0 -0.20881,-0.0327 -0.3086,0 -0.11158,0.0366 -0.1995,0.15473 -0.30861,0.20245 -0.0488,0.0213 -0.10287,0 -0.1543,0 -0.10287,0 -0.20574,0 -0.3086,0 -0.36004,0 -0.72228,-0.0522 -1.08011,0 -0.26066,0.038 -0.51086,0.16444 -0.77151,0.20243 -0.20448,0.0298 -0.41147,0 -0.61721,0 -0.61721,0 -1.23441,0 -1.85161,0 -0.15431,0 -0.30861,0 -0.46291,0 -0.10287,0 -0.20881,-0.0327 -0.3086,0 -0.11158,0.0366 -0.1995,0.15474 -0.30861,0.20245 -0.091,0.0398 -0.68529,0 -0.7715,0 -0.0514,0 -0.1083,-0.0301 -0.15431,0 -0.0651,0.0426 -0.0938,0.1495 -0.1543,0.20244 -0.0957,0.0837 -0.2129,0.11875 -0.3086,0.20245 -0.0605,0.0529 -0.0892,0.15976 -0.1543,0.20244 -0.45408,0.29787 0.20315,-0.46898 -0.30861,0.20244"
       style="fill:none;fill-rule:evenodd;stroke:#00ddb2;stroke-width:1.39971375;stroke-linecap:butt;stroke-linejoin:miter;stroke-miterlimit:4;stroke-dasharray:1.39971377, 1.39971377;stroke-dashoffset:0;stroke-opacity:0.89952153" />
    <path
       inkscape:export-ydpi="90"
       inkscape:export-xdpi="90"
       inkscape:connector-curvature="0"
       id="path5792"
       d="m 243.13044,685.68498 c 0.92281,-0.24214 0.50925,-0.20244 1.23441,-0.20244 0.10287,0 0.20774,0.0264 0.30861,0 0.15949,-0.0419 0.30341,-0.16059 0.4629,-0.20244 0.58848,-0.15442 0.0257,0.28683 0.77151,-0.20245 0.16587,-0.1088 0.28697,-0.32794 0.46291,-0.40488 0.0178,-0.008 0.87981,0.007 0.92581,0 0.26023,-0.0426 0.51032,-0.17129 0.7715,-0.20244 0.30734,-0.0366 0.61991,0.0536 0.92581,0 0.47003,-0.0822 0.91712,-0.33976 1.38871,-0.40489 0.51152,-0.0706 1.02868,0 1.54302,0 1.54301,0 3.08603,0 4.62904,0 1.69732,0 3.39463,0 5.09195,0 0.61721,0 1.26347,-0.24553 1.85162,0 0.59828,0.24975 0.99791,1.00843 1.54301,1.4171 0.5396,0.40454 1.11073,0.74286 1.69732,1.01221 0.44758,0.20553 0.92712,0.26239 1.38871,0.40489 0.41286,0.12745 0.82156,0.27743 1.23442,0.40488 0.46159,0.1425 0.92741,0.26079 1.38871,0.40489 0.6189,0.19333 1.22994,0.43001 1.85162,0.60733 1.08515,0.3095 2.35523,0.444 3.39463,1.01222 0.701,0.3832 1.28063,1.12178 2.00592,1.41709 0.79208,0.32251 1.65864,0.17237 2.46883,0.40489 0.84227,0.24173 1.62781,0.76306 2.46882,1.01221 0.25929,0.0768 4.60807,0.78102 4.78335,0.80977 0.82294,0.13496 1.67723,0.0803 2.46882,0.40489 0.8782,0.36005 1.57622,1.32677 2.46883,1.61954 0.79836,0.26187 1.6477,-0.0718 2.46882,0 0.72577,0.0635 1.43498,0.33169 2.16022,0.40489 0.61539,0.0621 1.23441,0 1.85162,0 1.13154,0 2.26309,0 3.39463,0 2.36596,0 4.73191,0 7.09787,0 0.97724,0 1.95449,0 2.93173,0 0.56577,0 1.13409,0.0704 1.69732,0 0.52216,-0.0653 1.02085,-0.33965 1.54301,-0.40489 0.56322,-0.0704 1.13847,0.11577 1.69732,0 0.43407,-0.0899 0.80471,-0.48652 1.23441,-0.60733 0.30175,-0.0848 0.61811,0.031 0.92581,0 0.36262,-0.0366 0.71767,-0.16282 1.08011,-0.20244 0.25628,-0.028 0.51848,0.0604 0.77151,0 0.32005,-0.0763 0.6172,-0.26993 0.92581,-0.40489 0.3086,-0.13495 0.6172,-0.26992 0.92581,-0.40488 0.3086,-0.13496 0.60683,-0.32119 0.92581,-0.40489 0.3026,-0.0794 0.62319,0.0794 0.92581,0 1.09913,-0.28841 -0.26213,-0.15331 1.0801,-0.40488 0.15275,-0.0286 0.31016,0.0286 0.46291,0 0.20993,-0.0394 0.40619,-0.17476 0.6172,-0.20244 0.30708,-0.0403 0.6232,0.0794 0.92581,0 0.22556,-0.0592 0.39899,-0.30946 0.61721,-0.40489 0.2488,-0.10881 0.51433,-0.13496 0.77151,-0.20245 0.25717,-0.0675 0.51434,-0.13496 0.7715,-0.20244 0.25717,-0.0675 0.51055,-0.1682 0.77151,-0.20244 0.25589,-0.0336 0.51693,0.0477 0.77151,0 0.2121,-0.0398 0.63597,-0.55652 0.7715,-0.60733 0.16802,-0.063 0.8641,0.0472 1.08012,0 0.16043,-0.0351 0.31189,-0.12319 0.4629,-0.20244 0.10678,-0.056 0.19516,-0.17764 0.3086,-0.20244 0.20294,-0.0444 0.41939,0.0742 0.61721,0 0.17831,-0.0669 0.29245,-0.30905 0.46291,-0.40489 0.69213,-0.38917 0.47957,-0.0109 1.08011,-0.40489 2.2912,-1.80362 -0.46545,0.2328 1.38871,-0.80977 0.17045,-0.0958 0.31809,-0.25289 0.4629,-0.40488 0.1136,-0.11923 0.17489,-0.3297 0.30861,-0.40488 0.24106,-0.13554 0.5227,-0.0936 0.7715,-0.20245 0.069,-0.0301 0.0853,-0.17226 0.15431,-0.20244 0.0976,-0.0426 0.20713,0.0222 0.3086,0 0.20918,-0.0458 0.40802,-0.15671 0.61721,-0.20245 0.10147,-0.0222 0.21659,0.0604 0.3086,0 0.13011,-0.0854 0.18385,-0.30668 0.3086,-0.40488 0.66568,-0.52402 0.23373,-0.026 0.77151,-0.20244 0.22315,-0.0732 0.39165,-0.34571 0.6172,-0.40489 0.15131,-0.0397 0.31071,0.0333 0.46291,0 0.78216,-0.17103 0.16415,-0.20761 0.92581,-0.60733 0.0955,-0.0501 0.20969,0.037 0.3086,0 0.26632,-0.0998 0.50874,-0.28997 0.77151,-0.40488 0.0488,-0.0213 0.10286,0 0.1543,0 0.25717,0 0.52202,0.0818 0.77151,0 0.17991,-0.059 0.29245,-0.30904 0.4629,-0.40488 0.19492,-0.10961 0.4133,-0.12601 0.61721,-0.20245 0.15639,-0.0586 0.30151,-0.17597 0.4629,-0.20244 0.25519,-0.0418 0.51434,0 0.77151,0 0.25717,-0.0675 0.51188,-0.15379 0.7715,-0.20245 0.10184,-0.0191 0.2131,0.0501 0.30861,0 0.17219,-0.0904 0.29072,-0.31452 0.46291,-0.40488 0.0955,-0.0501 0.2088,0.0327 0.3086,0 0.11157,-0.0366 0.20573,-0.13496 0.3086,-0.20244 0.1543,-0.0675 0.30341,-0.1606 0.4629,-0.20245 0.30262,-0.0794 0.6232,0.0794 0.92581,0 0.0713,-0.0187 0.10287,-0.13496 0.15431,-0.20244 0.1543,0 0.3086,0 0.4629,0 0.1543,0 0.3086,0 0.46291,0 0.20573,0 0.41761,0.0655 0.6172,0 0.22315,-0.0732 0.39405,-0.33169 0.61721,-0.40489 0.19959,-0.0655 0.41147,0 0.61721,0 0.41146,0 0.82294,0 1.2344,0 0.15431,0 0.3116,0.0397 0.46291,0 0.11278,-0.0296 0.19583,-0.17285 0.3086,-0.20244 0.24968,-0.0993 0.51934,0.0661 0.77151,0 0.15949,-0.0418 0.30512,-0.15069 0.46291,-0.20244 0.0499,-0.0163 0.10287,0 0.15429,0 0.10287,0 0.20574,0 0.30861,0 0.3086,0 0.6172,0 0.92581,0 1.18298,0 2.36595,0 3.54893,0 0.46291,0 0.92581,0 1.38872,0 0.1543,0 0.3086,0 0.4629,0 0.1543,0 0.31321,0.0491 0.46291,0 0.0706,-0.0232 0.0892,-0.15977 0.1543,-0.20244 0.046,-0.0302 0.10287,0 0.1543,0 0.10286,0 0.20573,0 0.3086,0 0.30861,0 0.6172,0 0.92581,0 0.66864,0 1.33728,0 2.00592,0 0.10287,0 0.20573,0 0.3086,0 0.10287,0 0.30861,-0.13497 0.30861,0 0,0.13496 -0.41148,0 -0.30861,0 1.54302,0 3.08604,0 4.62905,0 0.6172,0 1.23441,0 1.85161,0 0.41148,0 0.83523,-0.13093 1.23442,0 0.4463,0.14638 0.79207,0.64396 1.23441,0.80976 0.29673,0.11124 0.61721,0 0.92581,0 0.0514,0 0.1083,0.0302 0.1543,0 0.0651,-0.0426 0.10287,-0.26991 0.1543,-0.20244 0.0514,0.0675 -0.10287,0.13496 -0.1543,0.20244"
       style="fill:none;fill-rule:evenodd;stroke:#00ddb2;stroke-width:1.39971375;stroke-linecap:butt;stroke-linejoin:miter;stroke-miterlimit:4;stroke-dasharray:1.39971377, 1.39971377;stroke-dashoffset:0;stroke-opacity:0.89952153" />
    <path
       inkscape:export-ydpi="90"
       inkscape:export-xdpi="90"
       inkscape:connector-curvature="0"
       id="path5794"
       d="m 373.82382,669.89444 c -2.87042,-1.88297 0.22715,-0.0774 -1.38871,-0.60732 -0.26872,-0.0881 -0.49776,-0.34963 -0.77152,-0.40489 -0.40668,-0.0821 -0.82294,0 -1.23441,0 -0.4629,0 -0.92581,0 -1.38871,0 -0.66864,0 -1.33941,-0.07 -2.00592,0 -0.62372,0.0655 -1.22806,0.33671 -1.85162,0.40489 -0.61507,0.0673 -1.23598,-0.0577 -1.85161,0 -1.4311,-0.1257 -2.76804,0.64301 -4.16614,0.80977 -0.56345,0.0672 -1.1363,-0.096 -1.69732,0 -5.1649,0.88387 1.60249,0.41525 -3.85754,1.01221 -0.56382,0.0616 -1.13673,-0.10029 -1.69732,0 -0.58106,0.10396 -1.11625,0.50338 -1.69732,0.60733 -0.56058,0.1003 -1.13672,-0.10029 -1.69731,0 -0.58106,0.10396 -1.13228,0.40141 -1.69732,0.60733 -0.36078,0.13148 -0.71886,0.27562 -1.08011,0.40489 -0.20459,0.0732 -0.41602,0.11445 -0.6172,0.20244 -0.26277,0.11492 -0.4983,0.34514 -0.77151,0.40488 -0.35514,0.0777 -0.73599,-0.13891 -1.08011,0 -0.3545,0.14311 -0.58144,0.62905 -0.92581,0.80977 -0.19102,0.10025 -0.41872,-0.071 -0.6172,0 -0.37792,0.13523 -0.71452,0.42285 -1.08012,0.60733 -0.30361,0.15321 -0.6172,0.26993 -0.92581,0.40489 -1.17389,0.51338 -2.36356,0.95054 -3.54893,1.4171 -0.51434,0.20244 -1.03914,0.36377 -1.54302,0.60733 -0.47533,0.22976 -0.90814,0.5996 -1.38871,0.80977 -0.44986,0.19674 -0.92867,0.25399 -1.38871,0.40489 -0.56893,0.1866 -1.13155,0.40488 -1.69732,0.60732 -0.61721,0.13496 -1.24146,0.22295 -1.85162,0.40489 -0.52363,0.15613 -1.02063,0.44414 -1.54301,0.60733 -0.55941,0.17474 -1.13791,0.23014 -1.69732,0.40488 -1.37802,0.43047 -1.66836,0.83507 -3.08603,1.01222 -0.56322,0.0704 -1.13154,0 -1.69731,0 -1.33729,0 -2.67456,0 -4.01185,0 -2.98316,0 -5.96632,0 -8.94948,0 -2.62313,0 -5.24625,0 -7.86938,0 -0.97724,0 -1.95448,0 -2.93173,0 -0.36003,0 -0.72007,0 -1.0801,0 -0.15431,0 -0.31161,0.0397 -0.46291,0 -0.15949,-0.0419 -0.30341,-0.16059 -0.4629,-0.20245 -0.10087,-0.0265 -0.20574,0 -0.30861,0 -0.25717,0 -0.51692,0.0477 -0.77151,0 -0.20993,-0.0394 -0.40802,-0.1567 -0.6172,-0.20244 -0.10147,-0.0222 -0.20574,0 -0.30861,0 -0.20573,0 -0.41146,0 -0.6172,0 -0.82294,0 -1.64588,0 -2.46883,0 -0.7715,0 -1.54301,0 -2.31452,0 -0.1768,0 -1.19317,-0.0427 -1.38871,0 -0.16044,0.0351 -0.30247,0.16736 -0.46291,0.20244 -0.1522,0.0333 -0.3086,0 -0.4629,0 -0.36004,0 -0.72008,0 -1.08011,0 -0.20574,0 -0.41306,-0.0335 -0.61721,0 -0.21043,0.0345 -0.40802,0.15671 -0.61721,0.20245 -0.10146,0.0222 -0.20573,0 -0.30859,0 -0.15431,0 -0.30861,0 -0.46291,0 -0.10287,0 -0.20714,0.0222 -0.30861,0 -0.86586,-0.18934 -0.34633,-0.16421 -1.0801,-0.40489 -0.1497,-0.0491 -0.3116,0.0397 -0.46291,0 -1.29917,-0.3409 -0.005,-0.003 -0.61721,-0.40488 -0.046,-0.0301 -0.10286,0 -0.1543,0 -0.1543,0 -0.3107,0.0333 -0.4629,0 -1.35449,-0.29619 0.23586,-0.0745 -0.77151,-0.40489 -0.0998,-0.0327 -0.20573,0 -0.3086,0 -0.20574,0 -0.41306,0.0335 -0.61721,0 -0.21043,-0.0345 -0.40925,-0.14788 -0.6172,-0.20244 -0.0505,-0.0132 -0.10287,0 -0.1543,0 -0.20574,0 -0.41274,0.0298 -0.61721,0 -0.26066,-0.038 -0.51085,-0.16445 -0.77151,-0.20245 -0.20447,-0.0298 -0.41354,0.0382 -0.61721,0 -0.16101,-0.0301 -0.30189,-0.17226 -0.4629,-0.20244 -0.35283,-0.0661 -0.72728,0.0661 -1.08011,0 -0.86949,-0.16297 -0.39964,-0.27734 -1.08011,-0.40488 -0.20367,-0.0382 -0.41147,0 -0.61721,0 -0.0514,0 -0.1044,0.0163 -0.1543,0 -0.15779,-0.0518 -0.30511,-0.15069 -0.4629,-0.20245 -0.0998,-0.0327 -0.20881,0.0327 -0.30861,0 -0.15779,-0.0518 -0.30511,-0.15069 -0.4629,-0.20244 -0.0499,-0.0164 -0.10287,0 -0.1543,0 -0.20574,0 -0.41147,0 -0.61721,0 -1.58892,0 0.69896,0.064 -0.92581,-0.20245 -0.25518,-0.0418 -0.52046,0.0732 -0.7715,0 -0.22455,-0.0655 -0.39406,-0.33169 -0.61721,-0.40488 -0.19959,-0.0655 -0.41306,0.0335 -0.61721,0 -0.21043,-0.0345 -0.40727,-0.1631 -0.6172,-0.20244 -0.63007,-0.11809 -0.36004,0.15746 -1.08012,0 -0.11344,-0.0249 -0.19949,-0.15472 -0.30859,-0.20245 -0.20119,-0.088 -0.40926,-0.14787 -0.61721,-0.20244 -0.0504,-0.0132 -0.10287,0 -0.1543,0 -0.30861,0 -0.61721,0 -0.92581,0 -0.1543,0 -0.31455,0.0556 -0.46291,0 -0.22116,-0.0829 -0.39603,-0.32198 -0.6172,-0.40488 -0.14837,-0.0556 -0.31015,0.0286 -0.46291,0 -0.20994,-0.0394 -0.40926,-0.14788 -0.61721,-0.20244 -0.1967,-0.0516 -0.42312,0.0636 -0.6172,0 -0.15779,-0.0518 -0.30341,-0.1606 -0.4629,-0.20245 -0.28456,-0.0746 -0.79729,0.0742 -1.08011,0 -0.11278,-0.0296 -0.19583,-0.17285 -0.30861,-0.20244 -0.2336,-0.0613 -1.05094,0.0802 -1.23441,0 -0.17593,-0.077 -0.29072,-0.31452 -0.46291,-0.40488 -0.0955,-0.0501 -0.2088,0.0327 -0.3086,0 -0.11157,-0.0366 -0.19582,-0.17286 -0.3086,-0.20245 -0.34291,-0.09 -0.73512,0.0754 -1.08011,0 -0.16043,-0.0351 -0.30189,-0.17226 -0.46291,-0.20244 -0.35641,-0.0668 -0.72497,0.0777 -1.08011,0 -0.16043,-0.0351 -0.30341,-0.16059 -0.4629,-0.20245 -0.10087,-0.0265 -0.2097,0.037 -0.3086,0 -0.26633,-0.0998 -0.5028,-0.31675 -0.77151,-0.40488 -0.1497,-0.0491 -0.3107,0.0333 -0.4629,0 -1.12099,-0.24512 0.0542,-0.20244 -0.77151,-0.20244 -0.1543,0 -0.30861,0 -0.46291,0 -0.10287,0 -0.21101,0.0427 -0.3086,0 -0.069,-0.0301 -0.0853,-0.17226 -0.1543,-0.20245 -0.14638,-0.064 -0.30861,0 -0.46291,0 -0.3086,0 -0.6172,0 -0.92581,0 -0.9258,0 -1.85161,0 -2.77742,0 -0.46291,0 -0.92581,0 -1.38872,0 -0.56015,0 -0.81136,-0.15015 -1.23441,0.40489"
       style="fill:none;fill-rule:evenodd;stroke:#00ddb2;stroke-width:1.39971375;stroke-linecap:butt;stroke-linejoin:miter;stroke-miterlimit:4;stroke-dasharray:1.39971377, 1.39971377;stroke-dashoffset:0;stroke-opacity:0.89952153" />
    <path
       inkscape:export-ydpi="90"
       inkscape:export-xdpi="90"
       inkscape:connector-curvature="0"
       id="path5796"
       d="m 242.35894,729.8175 c 1.44533,1.13777 0.0848,0.22113 1.54301,0.80977 0.42002,0.16956 0.80249,0.50108 1.23441,0.60734 0.0608,0.015 2.16488,-0.0131 2.31452,0 0.41376,0.0362 0.82096,0.16071 1.23442,0.20244 0.25641,0.0259 0.51433,0 0.7715,0 0.61721,0 1.23442,0 1.85162,0 3.54894,0 7.09787,0 10.64681,0 3.39463,0 6.78926,0 10.1839,0 1.18297,0 2.36595,0 3.54893,0 0.41147,0 0.82294,0 1.23441,0 0.20574,0 0.41547,0.0529 0.61721,0 0.11278,-0.0296 0.19516,-0.17764 0.3086,-0.20244 0.20293,-0.0444 0.41273,0.0298 0.61721,0 0.26066,-0.038 0.51032,-0.1713 0.7715,-0.20245 0.30734,-0.0366 0.61721,0 0.92581,0 1.23441,0 2.46883,0 3.70324,0 2.77743,0 5.55485,0 8.33228,0 1.02868,0 2.05735,0 3.08603,0 0.36004,0 0.72008,0 1.08011,0 0.1543,0 0.3116,0.0397 0.46291,0 0.11277,-0.0296 0.20182,-0.1464 0.3086,-0.20244 0.15101,-0.0793 0.30341,-0.16059 0.4629,-0.20245 0.10087,-0.0265 0.20574,0 0.30861,0 0.20573,0 0.41147,0 0.6172,0 0.10287,0 0.20677,0.0191 0.3086,0 0.45709,-0.0857 0.93948,-0.25753 1.38872,-0.40488 0.20573,-0.0675 0.40619,-0.17475 0.61721,-0.20244 0.30707,-0.0403 0.61811,0.031 0.9258,0 2.9263,-0.29533 -0.60035,-0.094 2.00592,-0.40489 0.25611,-0.0305 0.51562,0.0336 0.77151,0 1.30922,-0.17177 0.27585,-0.28926 1.85162,-0.60733 0.30502,-0.0616 0.61721,0 0.92581,0 0.36004,0 0.72007,0 1.08011,0 0.20574,0 0.41546,0.0529 0.6172,0 2.57526,-0.67574 -0.37717,-0.09 1.54302,-0.80976 0.14836,-0.0556 0.3086,0 0.46291,0 0.20573,0 0.41146,0 0.6172,0 1.80019,0 3.60037,0 5.40055,0 0.56578,0 1.13155,0 1.69732,0 0.20573,0 0.41147,0 0.61721,0 0.0514,0 0.1055,-0.0213 0.15429,0 0.10912,0.0477 0.19802,0.16098 0.30861,0.20244 0.25217,0.0945 0.53045,0.0669 0.77151,0.20244 0.13371,0.0752 0.17059,0.34453 0.3086,0.40488 0.34503,0.1509 0.72728,0.0867 1.08011,0.20245 0.26871,0.0881 0.50519,0.30505 0.77151,0.40488 0.60006,0.22494 0,-0.3374 0.77151,0 0.41772,-0.22491 0.37323,0.50064 0.6172,0.60733 0.19518,0.0854 0.41762,-0.0655 0.61721,0 0.11157,0.0366 0.1995,0.15473 0.3086,0.20245 0.0488,0.0213 0.1044,-0.0164 0.15431,0 0.15779,0.0518 0.30341,0.16059 0.4629,0.20243 0.1513,0.0397 0.31652,-0.064 0.4629,0 0.26277,0.11492 0.5028,0.31676 0.77151,0.40489 0.29939,0.0982 0.6203,-0.0572 0.92581,0 0.20994,0.0394 0.40678,0.16794 0.61721,0.20245 0.20414,0.0335 0.41146,0 0.6172,0 0.20574,0 0.41147,0 0.61721,0 0.82294,0 1.64588,0 2.46882,0 0.72007,0 1.44015,0 2.16022,0 0.3086,0 0.62031,0.0572 0.92581,0 0.16102,-0.0301 0.30247,-0.16737 0.46291,-0.20245 0.1522,-0.0333 0.31321,0.0491 0.4629,0 0.0706,-0.0232 0.083,-0.18372 0.1543,-0.20244 0.20174,-0.0529 0.41547,0.0529 0.6172,0 0.0713,-0.0187 0.10287,-0.13497 0.15431,-0.20245 0.20573,-0.0675 0.40727,-0.16309 0.6172,-0.20243 0.15275,-0.0286 0.31653,0.0641 0.46291,0 0.17593,-0.077 0.30388,-0.27971 0.4629,-0.40489 0.0986,-0.0776 0.1995,-0.15473 0.30861,-0.20245 0.20557,-0.56289 0.51707,-0.11898 0.7715,-0.20244 0.1578,-0.0518 0.30247,-0.16736 0.46291,-0.20244 0.21602,-0.0472 0.91209,0.063 1.08011,0 1.22235,-0.4582 -0.26041,-0.385 0.92581,-0.60733 0.20366,-0.0382 0.41427,0.0444 0.6172,0 0.11345,-0.0248 0.19516,-0.17763 0.30861,-0.20244 0.20294,-0.0443 0.41305,0.0335 0.6172,0 0.21043,-0.0345 0.40727,-0.1631 0.61721,-0.20244 0.3055,-0.0572 0.62642,0.0982 0.92581,0 0.26871,-0.0881 0.50519,-0.30505 0.7715,-0.40489 0.0989,-0.037 0.20574,0 0.30861,0 0.20574,0 0.41147,0 0.6172,0 0.72008,0 1.44016,0 2.16023,0 0.44726,0 -0.22915,0.0163 0.77151,-0.20244 0.10146,-0.0222 0.20573,0 0.30859,0 0.25718,0 0.51435,0 0.77151,0 0.10287,0 0.20574,0 0.30861,0 0.0514,0 0.1055,0.0213 0.1543,0 0.10911,-0.0477 0.19583,-0.17285 0.3086,-0.20245 0.15131,-0.0397 0.3086,0 0.46291,0 0.51433,0 1.02867,0 1.54301,0 0.20574,0 0.41147,0 0.61721,0 0.1543,0 0.31015,0.0286 0.4629,0 0.20994,-0.0394 0.40727,-0.16309 0.61721,-0.20244 0.15275,-0.0286 0.3086,0 0.4629,0 0.25717,0 0.51434,0 0.77151,0 0.77151,0 1.54302,0 2.31452,0 1.69732,0 3.39464,0 5.09195,0 0.77151,0 1.54302,0 2.31453,0 0.36003,0 0.72007,0 1.0801,0 0.10287,0 0.2131,0.0501 0.30861,0 0.17218,-0.0904 0.29704,-0.29608 0.46291,-0.40488 0.046,-0.0301 0.10286,0 0.15429,0 0.15423,0 0.6395,0.0433 0.77151,0 0.1578,-0.0518 0.30247,-0.16737 0.46291,-0.20245 0.3044,-0.0665 0.6214,0.0665 0.92581,0 0.16043,-0.0351 0.30151,-0.17597 0.4629,-0.20244 0.25518,-0.0419 0.51633,0.0418 0.77151,0 0.16139,-0.0265 0.30511,-0.15068 0.4629,-0.20244 0.0499,-0.0164 0.10287,0 0.15431,0 0.15429,0 0.3086,0 0.4629,0"
       style="fill:none;fill-rule:evenodd;stroke:#00ddb2;stroke-width:1.39971375;stroke-linecap:butt;stroke-linejoin:miter;stroke-miterlimit:4;stroke-dasharray:1.39971377, 1.39971377;stroke-dashoffset:0;stroke-opacity:0.89952153" />
    <path
       inkscape:export-ydpi="90"
       inkscape:export-xdpi="90"
       inkscape:connector-curvature="0"
       id="path5798"
       d="m 241.89603,738.72499 c 0.4083,-0.0669 0.82612,0.0669 1.23441,0 0.21043,-0.0345 0.40678,-0.16794 0.61721,-0.20245 0.20415,-0.0335 0.41354,0.0382 0.6172,0 0.16102,-0.0301 0.30247,-0.16735 0.46291,-0.20244 0.17302,-0.0378 0.93805,0.0621 1.08011,0 0.069,-0.0301 0.0892,-0.15976 0.1543,-0.20244 0.0417,-0.0274 0.85934,0 0.92581,0 0.92581,0 1.85162,0 2.77743,0 2.88029,0 5.76059,0 8.64088,0 9.30953,0 18.61905,0 27.92858,0 3.29176,0 6.58353,0 9.87529,0 1.08011,0 2.16022,0 3.24033,0 0.41147,0 0.82294,0 1.23441,0 0.10287,0 0.20714,-0.0222 0.30861,0 0.20918,0.0458 0.40925,0.14788 0.6172,0.20244 0.0504,0.0132 0.1083,-0.0301 0.1543,0 0.16587,0.10881 0.29704,0.29608 0.46291,0.40489 0.046,0.0301 0.1083,-0.0302 0.1543,0 0.13012,0.0853 0.17059,0.34452 0.3086,0.40489 0.46291,0.20243 0.15431,-0.10123 0.46291,0 1.2167,0.39907 -0.3313,-0.0524 0.92581,0.60732 0.0955,0.0501 0.20573,0 0.3086,0 0.61581,0 0.30999,0 0.92581,0 0.10286,0 0.20713,-0.0222 0.3086,0 0.20918,0.0458 0.40926,0.14788 0.6172,0.20244 0.20175,0.0529 0.41428,-0.0444 0.61722,0 0.16043,0.0351 0.30189,0.17227 0.4629,0.20245 0.18048,0.0338 0.85515,-0.059 1.08011,0 0.15949,0.0418 0.30341,0.16059 0.4629,0.20244 0.15131,0.0397 0.30861,0 0.46291,0 0.36003,0 0.72007,0 1.08011,0 0.20573,0 0.41147,0 0.61721,0 0.1543,0 0.31651,-0.0641 0.4629,0 0.17593,0.077 0.28697,0.32794 0.46291,0.40488 0.14637,0.0641 0.3086,0 0.4629,0 0.20573,0 0.41354,-0.0381 0.6172,0 0.16102,0.0301 0.30247,0.16737 0.46291,0.20245 0.1522,0.0333 0.3086,0 0.4629,0 0.30861,0 0.61721,0 0.92581,0 0.92581,0 1.85162,0 2.77743,0 0.41147,0 0.82294,0 1.23441,0 0.20574,0 0.41354,0.0382 0.6172,0 0.16102,-0.0301 0.30248,-0.16737 0.46291,-0.20245 0.3044,-0.0665 0.6232,0.0795 0.92581,0 0.11277,-0.0296 0.19583,-0.17284 0.3086,-0.20244 0.25218,-0.0661 0.51934,0.0661 0.77151,0 0.15949,-0.0418 0.30342,-0.16059 0.46291,-0.20244 0.10087,-0.0265 0.20573,0 0.3086,0 0.1543,-0.0675 0.30511,-0.15069 0.4629,-0.20244 0.36576,-0.11997 -0.0686,0.35989 0.61721,0 0.13507,-0.0709 0.18385,-0.30669 0.3086,-0.40489 1.25286,-0.98624 0.0659,0.0386 0.61721,-0.20244 0.1091,-0.0477 0.19703,-0.16585 0.3086,-0.20245 0.0998,-0.0327 0.20881,0.0327 0.3086,0 0.42211,-0.13844 0.24831,-0.28466 0.61721,-0.60732 0.0428,-0.0374 0.1055,0.0213 0.1543,0 0.10911,-0.0477 0.1995,-0.15473 0.3086,-0.20245 0.0488,-0.0213 0.10287,0 0.15431,0 0.1543,-0.0675 0.31743,-0.10701 0.4629,-0.20244 0.0651,-0.0426 0.0837,-0.17929 0.1543,-0.20244 0.1497,-0.0491 0.30861,0 0.46291,0 0.36003,0 0.72007,0 1.08011,0 0.1543,0 0.31964,0.0752 0.4629,0 0.13507,-0.0709 0.18756,-0.29901 0.3086,-0.40489 0.0428,-0.0374 0.10287,0 0.15431,0 0.1543,0 0.31321,0.0491 0.4629,0 0.0706,-0.0232 0.0837,-0.1793 0.1543,-0.20244 0.11089,-0.0364 0.75568,0 0.92581,0 0.72007,0 1.44015,0 2.16022,0 0.77151,0 1.54302,0 2.31453,0 0.0558,0 0.81769,-0.0354 0.92581,0 0.11157,0.0366 0.19702,0.16585 0.30859,0.20244 0.0998,0.0327 0.20574,0 0.30861,0 0.20574,0 0.41147,0 0.6172,0 0.0514,0 0.10551,-0.0213 0.15431,0 0.1091,0.0477 0.19703,0.16585 0.3086,0.20245 0.0998,0.0327 0.20573,0 0.3086,0 0.10287,0 0.20574,0 0.30861,0 0.4629,0 0.92581,0 1.38871,0 1.23441,0 2.46882,0 3.70324,0 0.82294,0 1.64588,0 2.46882,0 0.41147,0 0.82294,0 1.23441,0 0.10287,0 0.20774,-0.0265 0.30861,0 0.15949,0.0418 0.30511,0.15068 0.4629,0.20244 0.0998,0.0327 0.21101,-0.0426 0.3086,0 0.10911,0.0477 0.1995,0.15473 0.30861,0.20244 0.0742,0.0325 1.05742,0 1.0801,0 1.13155,0 2.2631,0 3.39464,0 0.18208,0 1.28334,-0.0461 1.38872,0 1.11766,0.48879 -0.24328,-0.0584 0.4629,0.40489 0.0797,0.0523 0.8472,-0.0172 0.92581,0 0.16043,0.0351 0.30247,0.16736 0.4629,0.20244 0.15221,0.0333 0.3086,0 0.46291,0 0.1543,0 0.3086,0 0.4629,0 0.10287,0 0.20881,-0.0327 0.3086,0 0.11158,0.0366 0.19703,0.16584 0.3086,0.20245 0.0998,0.0327 0.20574,0 0.30861,0 0.25717,0 0.51433,0 0.77151,0 0.87437,0 1.74875,0 2.62312,0 0.66864,0 1.33728,0 2.00592,0 0.0889,0 0.71527,0.0369 0.77151,0 0.16587,-0.10882 0.29072,-0.31453 0.4629,-0.40489 0.0955,-0.0501 0.20574,0 0.30861,0 0.20573,0 0.41426,0.0444 0.6172,0 0.11345,-0.0248 0.19583,-0.17285 0.30861,-0.20245 0.87751,0 0.10158,0.0905 0.77151,-0.20244 0.0488,-0.0213 0.10286,0 0.15429,0 0.1543,0 0.30861,0 0.46291,0 0.25717,0 0.51434,0 0.77151,0 0.10287,0 0.21101,0.0426 0.3086,0 0.069,-0.0301 0.0892,-0.15976 0.1543,-0.20244 0.0964,-0.0632 0.8249,0.053 0.92581,0 0.13507,-0.0709 0.17353,-0.334 0.3086,-0.40489 0.0527,-0.0276 0.68794,0.0548 0.77151,0 0.0651,-0.0426 0.0837,-0.1793 0.1543,-0.20244 0.1497,-0.0491 0.3086,0 0.46291,0 0.0514,0 0.1055,0.0213 0.1543,0 0.1091,-0.0477 0.1995,-0.15472 0.3086,-0.20244 0.0488,-0.0213 0.1083,0.0301 0.15431,0 0.15192,-0.0997 0.31272,-0.52851 0.4629,-0.60733 0.1969,-0.10333 0.40925,-0.14788 0.6172,-0.20244 0.0504,-0.0132 0.1083,0.0301 0.1543,0 0.0651,-0.0427 0.0892,-0.15977 0.15431,-0.20245 0.092,-0.0604 0.21659,0.0604 0.3086,0 0.0651,-0.0426 0.0892,-0.15976 0.1543,-0.20244 0.046,-0.0301 0.11151,0.0374 0.1543,0 0.51746,-0.4526 0.10214,-0.40488 0.46291,-0.40488"
       style="fill:none;fill-rule:evenodd;stroke:#00ddb2;stroke-width:1.39971375;stroke-linecap:butt;stroke-linejoin:miter;stroke-miterlimit:4;stroke-dasharray:1.39971377, 1.39971377;stroke-dashoffset:0;stroke-opacity:0.89952153" />
    <ellipse
       inkscape:export-ydpi="90"
       inkscape:export-xdpi="90"
       cy="737.89508"
       cx="277.20032"
       id="path5800"
       style="opacity:1;fill:none;fill-opacity:1;stroke:#090b0c;stroke-width:0.36948213;stroke-miterlimit:4;stroke-dasharray:none;stroke-dashoffset:0;stroke-opacity:1"
       rx="9.0303631"
       ry="8.1603975" />
    <path
       inkscape:export-ydpi="90"
       inkscape:export-xdpi="90"
       inkscape:connector-curvature="0"
       id="path5802"
       d="m 193.32273,709.22058 75,22.85714"
       style="fill:none;fill-rule:evenodd;stroke:#000000;stroke-width:0.5;stroke-linecap:butt;stroke-linejoin:miter;stroke-miterlimit:4;stroke-dasharray:none;stroke-opacity:1;marker-end:url(#Arrow1Lend-3)" />
    <text
       inkscape:export-ydpi="90"
       inkscape:export-xdpi="90"
       sodipodi:linespacing="125%"
       id="text5848"
       y="649.46002"
       x="235.84515"
       style="font-style:normal;font-weight:normal;font-size:13.21456337px;line-height:125%;font-family:sans-serif;text-align:center;letter-spacing:0px;word-spacing:0px;text-anchor:middle;fill:#000000;fill-opacity:1;stroke:none;stroke-width:1px;stroke-linecap:butt;stroke-linejoin:miter;stroke-opacity:1"
       xml:space="preserve"
       transform="scale(0.91732415,1.0901272)"><tspan
         y="649.46002"
         x="235.84515"
         id="tspan5850"
         sodipodi:role="line">Zoom</tspan></text>
  </g>
</svg>
